<svg version="1.1" id="Layer_1" xmlns="http://www.w3.org/2000/svg" xmlns:xlink="http://www.w3.org/1999/xlink" x="0px" y="0px"
	 width="100%" viewBox="0 0 250 250" enable-background="new 0 0 250 250" xml:space="preserve">
<path fill="#FEFEFE" opacity="1.000000" stroke="none" 
	d="
M251.000000,161.000000 
	C251.000000,190.971985 251.000000,220.943985 251.000000,250.957977 
	C167.772491,250.957977 84.544952,250.957977 1.000000,250.957977 
	C1.000000,208.312958 1.000000,165.625137 1.371404,122.475601 
	C3.095569,123.286247 5.339849,124.372849 5.650249,125.862427 
	C7.178039,133.194107 12.558032,135.535919 18.895430,137.446014 
	C19.677372,142.929337 20.403774,147.965149 21.103662,153.383209 
	C23.440804,160.908264 25.800642,168.053192 31.970306,173.482330 
	C32.959377,174.936920 33.830040,176.055038 34.700706,177.173157 
	C35.021248,176.916229 35.341789,176.659302 35.662327,176.402390 
	C34.656971,175.063171 33.651611,173.723953 32.456238,172.097076 
	C29.164211,164.609711 26.062201,157.409988 23.007399,149.741119 
	C22.532003,137.949692 23.851496,127.002792 29.998775,116.951797 
	C34.852207,117.854996 39.317696,118.967186 43.850132,119.599571 
	C45.810226,119.873055 47.908527,119.155998 49.960175,119.292770 
	C50.675209,121.535530 51.374119,123.374428 51.966095,125.530151 
	C49.530807,128.888168 47.202454,131.929367 44.568665,135.219910 
	C44.562443,138.548080 44.861656,141.626892 45.137810,144.468414 
	C48.173687,144.317047 50.065277,144.222748 51.815048,144.452576 
	C49.945759,148.205887 51.981888,148.960678 54.987106,149.424362 
	C56.381439,150.932663 57.580566,152.182159 58.811157,153.782486 
	C58.998619,155.078201 59.154625,156.023071 59.268326,157.325287 
	C59.472309,158.796341 59.718605,159.910065 59.944672,161.354019 
	C59.941486,162.124969 59.958530,162.565674 59.956142,163.422745 
	C59.948933,165.230164 59.961159,166.621201 59.945877,168.415283 
	C59.914955,169.899033 59.911537,170.979782 59.761185,172.371918 
	C59.732170,174.134109 59.850086,175.584900 59.975151,177.403015 
	C60.137856,178.701538 60.293411,179.632706 60.523647,181.010910 
	C62.025398,180.261261 63.393661,179.927017 64.269768,179.082306 
	C68.783417,174.730469 72.867470,169.869171 77.731079,165.971298 
	C80.139740,164.040894 79.961914,162.235657 79.937012,159.715729 
	C79.951088,159.467072 79.988800,158.970398 80.206291,158.869720 
	C80.698112,158.573654 80.867958,158.310745 80.988007,157.636017 
	C83.616821,155.036285 86.169754,152.756088 88.771400,150.532867 
	C91.099937,148.543015 91.986610,146.870728 87.975037,145.664490 
	C87.919472,144.887314 87.882683,144.443573 87.780632,143.778748 
	C87.542213,143.289734 87.308540,143.093994 86.942871,142.722229 
	C86.615685,142.026199 86.359985,141.578415 86.074295,140.850647 
	C86.000038,140.388214 85.955765,140.205780 85.924301,139.751572 
	C85.891808,139.304184 85.846489,139.128555 85.789963,138.594238 
	C85.514107,136.829880 85.249451,135.424194 85.300079,134.134399 
	C87.411507,135.481079 89.207642,136.711884 90.879326,138.244720 
	C90.381218,139.188705 90.007568,139.830627 89.300499,141.045349 
	C92.045982,141.045349 94.118179,141.045349 96.272888,141.397095 
	C96.181946,143.408646 96.372177,145.216629 95.767487,146.700714 
	C93.882355,151.327484 91.696358,155.831650 89.627014,160.383362 
	C90.109917,160.761429 90.592827,161.139511 91.075729,161.517578 
	C92.362068,160.301605 94.181129,159.315033 94.824097,157.821991 
	C96.171577,154.693024 97.505264,152.370941 101.560677,152.997284 
	C105.881554,153.664627 111.452263,150.938660 113.083160,158.016495 
	C113.630470,160.391724 115.100121,162.176636 117.986259,160.024353 
	C114.946693,153.058151 111.923111,146.128601 108.931030,138.794510 
	C108.952263,133.884949 111.526985,131.201630 115.094383,128.855530 
	C119.242928,126.127243 122.176575,123.250046 117.981918,118.660995 
	C117.047279,116.870399 116.160706,115.424835 115.202484,113.734070 
	C115.076752,113.327957 115.022667,113.167053 114.900543,112.762276 
	C114.576385,112.309746 114.320274,112.101097 114.014153,111.589172 
	C113.358322,110.836723 112.752495,110.387550 112.091232,109.651550 
	C111.742325,108.900002 111.448845,108.435272 111.063889,107.664864 
	C110.004211,106.566193 109.036018,105.773209 107.927567,104.681137 
	C106.153976,102.922874 104.520653,101.463715 102.662544,99.733261 
	C99.372894,98.416245 96.639633,95.072800 92.624298,98.060890 
	C90.160950,97.058174 88.060532,96.092567 85.563744,95.064781 
	C79.540871,93.385727 73.368828,95.982986 71.031975,101.287964 
	C71.361832,102.695518 71.693291,103.765350 71.623428,105.042908 
	C69.819435,105.707924 68.416756,106.165215 66.994156,106.303688 
	C65.930878,105.273254 64.887505,104.561646 63.906670,103.473137 
	C65.241371,98.711967 66.513535,94.327698 67.904236,89.654755 
	C68.317032,88.816429 68.611282,88.266777 69.146629,87.593277 
	C69.507645,86.964424 69.627571,86.459427 69.805222,85.917984 
	C69.862938,85.881538 69.882416,85.746407 70.067245,85.734131 
	C70.333107,85.628517 70.488487,85.528557 70.480873,85.443092 
	C70.460129,85.209946 70.370590,84.982925 70.426651,84.565926 
	C70.743637,83.984772 70.942268,83.591164 71.373322,83.076065 
	C71.757500,82.649094 71.909256,82.343613 72.256340,81.792885 
	C73.276566,80.597298 74.101471,79.646950 75.223030,78.687790 
	C75.956566,78.099701 76.393456,77.520432 76.883606,76.939636 
	C76.936867,76.938110 76.986244,76.843681 77.314651,76.860535 
	C78.472626,76.303291 79.302200,75.729202 80.443161,75.172485 
	C81.374702,75.248268 81.994850,75.306671 82.757507,75.685806 
	C84.449402,78.483994 85.998795,80.961449 87.548180,83.438904 
	C88.082382,83.134850 88.616577,82.830803 89.150780,82.526756 
	C87.853897,80.002144 86.557014,77.477539 85.188354,74.709061 
	C85.052505,74.308281 84.988449,74.151375 84.917572,73.735207 
	C84.669762,73.240807 84.428787,73.005669 84.052513,72.519287 
	C83.342026,71.784920 82.766823,71.301796 82.031670,70.505577 
	C78.373657,68.586983 75.562798,68.896767 73.918800,73.167732 
	C73.498344,73.622139 73.264603,73.887840 72.733109,74.191986 
	C72.021385,74.844894 71.607422,75.459351 71.146133,76.090401 
	C71.098793,76.106987 71.088081,76.206734 70.764786,76.295105 
	C69.976776,77.580299 69.512070,78.777107 68.960403,80.158768 
	C68.873436,80.343613 68.798210,80.745209 68.581055,80.886520 
	C68.229385,81.336327 68.094872,81.644814 67.979301,81.972900 
	C67.998238,81.992500 67.950241,81.968040 67.750290,82.073898 
	C67.296295,82.400551 67.209129,82.674461 67.112198,83.275574 
	C66.807579,83.725426 66.679619,83.901176 66.249054,84.055153 
	C65.704048,84.719826 65.461647,85.406281 65.190193,86.431213 
	C65.013741,87.196556 64.866333,87.623413 64.547089,88.178093 
	C64.173119,88.526329 64.059120,88.785530 63.980640,89.294922 
	C63.808838,89.782143 63.619850,89.996368 62.959938,90.109467 
	C60.375561,90.871452 58.192326,91.672981 55.610779,92.513367 
	C50.530502,94.733025 45.848534,96.913826 40.901077,98.939240 
	C40.086117,98.191391 39.536644,97.598923 38.684319,96.874237 
	C36.919888,95.830078 35.458309,94.918137 33.823105,93.679008 
	C31.773556,92.897552 29.897631,92.443275 27.683937,91.983398 
	C26.895760,91.974159 26.445354,91.970528 25.826973,91.737228 
	C24.773586,91.670662 23.888172,91.833755 22.633640,92.039284 
	C18.076506,95.606270 18.329639,100.250626 18.778141,105.183762 
	C18.396816,105.917908 18.244135,106.470192 17.716942,107.018936 
	C16.231060,108.020378 15.119690,109.025352 13.690458,110.168930 
	C12.257205,110.543106 11.141813,110.778694 9.645597,111.008545 
	C4.990151,111.543060 4.613973,111.900612 5.026102,115.429726 
	C4.938578,117.226341 4.868601,118.608154 4.418773,119.991013 
	C3.025947,119.994713 2.012974,119.997360 1.000000,120.000000 
	C1.000000,80.366531 1.000000,40.733055 1.000000,1.049793 
	C84.230377,1.049793 167.460785,1.049793 251.000000,1.049793 
	C251.000000,52.020477 251.000000,103.041580 250.630554,154.603455 
	C248.948685,153.584885 247.258423,152.210068 246.390701,150.433502 
	C243.044571,143.582672 239.961319,136.603455 236.424866,128.898178 
	C231.708435,139.542740 227.372208,149.329178 222.683319,159.262863 
	C219.550232,155.273773 216.769852,151.137466 214.356293,147.018066 
	C219.762146,143.893265 221.289978,140.424072 219.568939,136.031906 
	C217.651550,131.138626 212.779877,129.495438 203.525543,130.887039 
	C203.525543,140.072815 203.457199,149.352127 203.632721,158.626801 
	C203.650009,159.540298 205.162231,160.425507 205.980591,161.323837 
	C206.308319,161.070923 206.636047,160.818008 206.963776,160.565094 
	C206.963776,158.769241 206.963776,156.973389 206.906876,154.712830 
	C206.604645,154.055161 206.359314,153.862198 206.155579,153.586594 
	C206.197174,153.503937 206.098541,153.347351 206.426910,153.028381 
	C206.607407,152.442398 206.459549,152.175415 206.405472,151.565186 
	C207.320343,150.183655 208.141434,149.145386 209.043671,148.324677 
	C209.307281,148.816818 209.561157,148.980957 209.981110,149.370453 
	C211.760162,152.125763 213.706055,154.408127 215.064590,156.998550 
	C216.876266,160.452927 219.391357,161.681915 223.491501,160.792282 
	C224.943512,159.953415 225.993454,159.033264 227.296936,157.936005 
	C227.710754,157.177368 227.871017,156.595840 228.013519,156.011414 
	C227.995743,156.008514 228.024414,156.032516 228.252731,155.842117 
	C228.649170,155.100677 228.817291,154.549652 229.308594,153.724365 
	C232.601456,153.318451 235.598541,153.393158 238.533951,153.003387 
	C242.280563,152.505875 244.513290,153.826447 245.376526,157.525925 
	C246.076599,160.526169 248.221024,161.305038 251.000000,161.000000 
M124.886810,133.234100 
	C124.042130,132.135712 123.197441,131.037338 122.352760,129.938950 
	C121.892090,130.224548 121.431427,130.510162 120.970757,130.795761 
	C120.970757,140.312302 120.956238,149.828949 121.014671,159.345123 
	C121.017517,159.809418 121.659737,160.269791 122.912018,160.907806 
	C125.724648,160.919510 128.573013,161.192139 131.332260,160.814285 
	C132.433197,160.663498 133.337372,159.076111 134.331100,158.142685 
	C133.991013,157.680939 133.650925,157.219177 133.310852,156.757416 
	C130.592133,156.757416 127.873421,156.757416 124.720970,156.757416 
	C124.720970,148.844238 124.720970,141.420792 124.886810,133.234100 
M184.762848,150.577072 
	C182.450195,153.177063 182.539627,150.059021 182.188370,149.295013 
	C179.275070,142.958328 176.521973,136.547974 173.238770,129.061661 
	C171.016388,140.335968 169.044754,150.338181 167.082230,160.294220 
	C170.875809,162.308090 171.271240,159.484192 171.708755,157.312653 
	C172.697723,152.404297 173.448685,147.447983 174.531082,141.144867 
	C177.844772,148.455597 180.610092,154.556503 183.763809,161.514282 
	C186.142441,156.096298 188.127991,151.573685 190.808777,146.728210 
	C191.514557,146.790543 192.780411,146.710190 192.838348,146.937592 
	C193.345505,148.928116 193.868195,150.964386 193.949203,153.004456 
	C194.198044,159.269348 195.298828,160.795044 200.270386,160.340988 
	C198.307739,150.835953 196.361160,141.408768 194.414597,131.981583 
	C193.802933,131.985138 193.191269,131.988678 192.579605,131.992233 
	C190.699936,136.654495 188.820267,141.316757 186.473633,146.356689 
	C186.320419,146.921143 186.167206,147.485580 185.624496,148.466934 
	C185.449265,148.983383 185.274048,149.499847 184.762848,150.577072 
M133.984589,146.392670 
	C134.344864,148.005447 134.539978,149.677597 135.094650,151.220474 
	C137.243637,157.197983 142.781693,161.022751 149.236450,161.133484 
	C156.403549,161.256439 162.464691,158.051117 164.360214,152.086380 
	C166.014633,146.880341 166.052597,138.603439 161.238251,134.429733 
	C156.414459,130.247803 151.159790,128.682602 145.159805,130.663391 
	C138.105698,132.992172 134.560043,138.226257 133.984589,146.392670 
M37.291851,179.844925 
	C38.297359,180.418350 39.302868,180.991776 40.308372,181.565201 
	C40.318611,181.494263 40.328850,181.423340 40.440857,180.647247 
	C39.237194,179.565399 37.741020,178.220673 36.244846,176.875931 
	C36.006687,177.105957 35.768528,177.335999 35.530369,177.566040 
	C35.959862,178.155975 36.389359,178.745911 37.291851,179.844925 
M39.566166,92.295341 
	C39.294449,92.010612 39.022732,91.725883 38.751015,91.441154 
	C38.633183,91.553825 38.406689,91.758247 38.413177,91.765930 
	C38.666767,92.066231 38.941589,92.348610 39.566166,92.295341 
M23.566145,88.295403 
	C23.294489,88.010765 23.022835,87.726128 22.751177,87.441498 
	C22.633364,87.554131 22.406927,87.758499 22.413404,87.766167 
	C22.666937,88.066368 22.941685,88.348656 23.566145,88.295403 
z"/>
<path fill="#1A5694" opacity="1.000000" stroke="none" 
	d="
M251.000000,160.571533 
	C248.221024,161.305038 246.076599,160.526169 245.376526,157.525925 
	C244.513290,153.826447 242.280563,152.505875 238.533951,153.003387 
	C235.598541,153.393158 232.601456,153.318451 229.065033,153.898010 
	C228.340332,154.908096 228.182358,155.470306 228.024414,156.032516 
	C228.024414,156.032516 227.995743,156.008514 227.756790,156.185272 
	C227.359680,156.945724 227.201523,157.529404 227.043365,158.113098 
	C225.993454,159.033264 224.943512,159.953415 223.479919,160.393204 
	C223.056137,159.647110 223.046051,159.381363 223.035980,159.115631 
	C227.372208,149.329178 231.708435,139.542740 236.424866,128.898178 
	C239.961319,136.603455 243.044571,143.582672 246.390701,150.433502 
	C247.258423,152.210068 248.948685,153.584885 250.630554,155.072113 
	C251.000000,156.714355 251.000000,158.428711 251.000000,160.571533 
M234.519882,142.094788 
	C233.524155,144.559631 232.528442,147.024475 231.487000,149.602509 
	C235.177673,149.602509 238.203583,149.602509 241.779465,149.602509 
	C239.984894,145.520142 238.383789,141.877869 236.556091,137.720154 
	C235.813522,139.382339 235.349884,140.420151 234.519882,142.094788 
z"/>
<path fill="#FCFDF4" opacity="1.000000" stroke="none" 
	d="
M18.839893,136.998489 
	C12.558032,135.535919 7.178039,133.194107 5.650249,125.862427 
	C5.339849,124.372849 3.095569,123.286247 1.371404,122.006943 
	C1.000000,121.555557 1.000000,121.111107 1.000000,120.333336 
	C2.012974,119.997360 3.025947,119.994713 4.569441,120.260452 
	C5.646695,121.089821 6.193428,121.650803 6.752670,122.196098 
	C6.765179,122.180405 6.790742,122.198204 6.812735,122.530525 
	C7.217812,123.473396 7.600896,124.083939 7.983979,124.694489 
	C8.221156,123.786102 8.458333,122.877716 8.705517,121.716949 
	C8.578412,121.165352 8.441301,120.866135 8.544559,120.383400 
	C8.892452,119.816811 8.999974,119.433731 9.063104,119.055145 
	C9.018710,119.059647 9.090463,119.112717 9.398851,119.005959 
	C11.154385,117.946457 12.601528,116.993713 14.457909,116.041046 
	C18.540369,116.065681 22.213594,116.090240 25.871799,116.325607 
	C25.765926,116.835098 25.568699,117.020821 24.851612,117.203751 
	C21.654036,117.545265 18.784035,117.443329 16.117464,118.130638 
	C14.468800,118.555580 13.129638,120.181328 11.651532,121.267998 
	C12.042863,121.732864 12.434195,122.197723 12.825525,122.662590 
	C13.372456,122.182655 13.869869,121.381683 14.476394,121.288139 
	C15.831635,121.079109 17.241278,121.222794 19.860083,121.222794 
	C17.446476,123.189766 16.370708,124.066467 16.085775,124.298676 
	C17.597427,126.500221 18.798370,128.249252 19.988251,130.297974 
	C19.739189,131.525299 19.501192,132.452927 19.186050,133.824081 
	C19.091013,134.567200 19.073122,134.866791 19.063028,135.477066 
	C18.993847,136.191345 18.916870,136.594910 18.839893,136.998489 
z"/>
<path fill="#FCFCF5" opacity="1.000000" stroke="none" 
	d="
M56.009087,92.474510 
	C58.192326,91.672981 60.375561,90.871452 62.880489,90.480347 
	C63.063057,91.893814 62.923931,92.896858 62.536583,94.074364 
	C62.207417,94.836166 62.126472,95.423492 61.814438,96.250244 
	C61.377880,97.325012 61.172405,98.160347 60.756668,99.254547 
	C59.738945,101.344589 58.931496,103.175781 58.096718,105.357986 
	C58.128674,106.175880 58.187950,106.642754 57.901169,107.258614 
	C57.014946,111.924309 56.474781,116.441002 55.536564,120.962425 
	C54.483315,122.322891 53.828117,123.678635 52.897911,125.078888 
	C52.439602,125.153374 52.256313,125.183350 52.073025,125.213318 
	C51.374119,123.374428 50.675209,121.535530 49.769295,118.990952 
	C43.715992,116.497551 37.869701,114.709846 32.119904,112.603119 
	C34.825592,108.848122 37.434788,105.412140 40.011902,101.977959 
	C39.979820,101.979752 39.975704,102.043884 40.343178,102.056137 
	C46.280983,99.041962 51.851322,96.015533 57.169163,93.126297 
	C57.103680,93.089500 56.556385,92.782005 56.009087,92.474510 
z"/>
<path fill="#195593" opacity="1.000000" stroke="none" 
	d="
M133.982834,145.973145 
	C134.560043,138.226257 138.105698,132.992172 145.159805,130.663391 
	C151.159790,128.682602 156.414459,130.247803 161.238251,134.429733 
	C166.052597,138.603439 166.014633,146.880341 164.360214,152.086380 
	C162.464691,158.051117 156.403549,161.256439 149.236450,161.133484 
	C142.781693,161.022751 137.243637,157.197983 135.094650,151.220474 
	C134.539978,149.677597 134.344864,148.005447 133.982834,145.973145 
M156.179047,135.093597 
	C154.781708,134.628708 153.412827,134.032104 151.981842,133.723007 
	C147.225143,132.695541 142.274338,134.950882 139.738113,139.190414 
	C137.122437,143.562759 137.473618,149.193054 140.605774,153.101364 
	C143.788834,157.073196 148.663300,158.409943 153.400803,157.113876 
	C162.183701,154.711136 165.778320,141.979065 156.179047,135.093597 
z"/>
<path fill="#1A5694" opacity="1.000000" stroke="none" 
	d="
M108.899536,139.199051 
	C111.923111,146.128601 114.946693,153.058151 117.986259,160.024353 
	C115.100121,162.176636 113.630470,160.391724 113.083160,158.016495 
	C111.452263,150.938660 105.881554,153.664627 101.560677,152.997284 
	C97.505264,152.370941 96.171577,154.693024 94.824097,157.821991 
	C94.181129,159.315033 92.362068,160.301605 91.075729,161.517578 
	C90.592827,161.139511 90.109917,160.761429 89.627014,160.383362 
	C91.696358,155.831650 93.882355,151.327484 95.767487,146.700714 
	C96.372177,145.216629 96.181946,143.408646 96.640671,141.416107 
	C98.082153,139.602463 99.304825,138.167969 100.378487,136.629501 
	C101.867783,134.495438 103.245171,132.283295 104.775879,130.456100 
	C106.220711,133.604767 107.560120,136.401901 108.899536,139.199051 
M101.878159,149.855331 
	C104.114922,149.855331 106.351692,149.855331 109.281418,149.855331 
	C107.409904,145.589462 105.829834,141.987885 103.898987,137.586777 
	C102.182785,141.537689 100.789246,144.460434 99.707237,147.494293 
	C99.507545,148.054184 100.567879,149.063446 101.878159,149.855331 
z"/>
<path fill="#1D5895" opacity="1.000000" stroke="none" 
	d="
M190.113541,147.051056 
	C188.127991,151.573685 186.142441,156.096298 183.763809,161.514282 
	C180.610092,154.556503 177.844772,148.455597 174.531082,141.144867 
	C173.448685,147.447983 172.697723,152.404297 171.708755,157.312653 
	C171.271240,159.484192 170.875809,162.308090 167.082230,160.294220 
	C169.044754,150.338181 171.016388,140.335968 173.238770,129.061661 
	C176.521973,136.547974 179.275070,142.958328 182.188370,149.295013 
	C182.539627,150.059021 182.450195,153.177063 185.153412,150.119476 
	C185.700653,149.124603 185.857330,148.587311 186.014008,148.050034 
	C186.167206,147.485580 186.320419,146.921143 187.043793,146.201996 
	C188.447144,146.381882 189.280350,146.716476 190.113541,147.051056 
z"/>
<path fill="#C8CEE8" opacity="1.000000" stroke="none" 
	d="
M104.670471,130.104584 
	C103.245171,132.283295 101.867783,134.495438 100.378487,136.629501 
	C99.304825,138.167969 98.082153,139.602463 96.558151,141.064346 
	C94.118179,141.045349 92.045982,141.045349 89.300499,141.045349 
	C90.007568,139.830627 90.381218,139.188705 90.877464,137.875473 
	C93.003326,134.472244 95.006584,131.740326 97.355125,128.973297 
	C102.802002,123.627075 107.903595,118.315941 113.253502,113.001648 
	C113.501808,112.998497 113.998444,112.996628 113.999207,112.998474 
	C113.999962,113.000328 114.004517,113.001831 114.146378,113.241562 
	C114.616875,113.647285 114.945496,113.813278 115.274124,113.979271 
	C116.160706,115.424835 117.047279,116.870399 117.626892,118.692131 
	C113.103447,122.747055 108.886963,126.425819 104.670471,130.104584 
z"/>
<path fill="#1A5694" opacity="1.000000" stroke="none" 
	d="
M206.963776,155.177536 
	C206.963776,156.973389 206.963776,158.769241 206.963776,160.565094 
	C206.636047,160.818008 206.308319,161.070923 205.980591,161.323837 
	C205.162231,160.425507 203.650009,159.540298 203.632721,158.626801 
	C203.457199,149.352127 203.525543,140.072815 203.525543,130.887039 
	C212.779877,129.495438 217.651550,131.138626 219.568939,136.031906 
	C221.289978,140.424072 219.762146,143.893265 214.319122,146.987183 
	C213.915115,146.939377 213.830597,146.892181 213.824020,146.554901 
	C213.114578,145.761063 212.411713,145.304504 211.975555,144.582336 
	C216.180923,143.303040 217.363785,140.393417 215.860626,137.150223 
	C213.995880,133.126892 210.187088,133.703384 206.949554,134.415543 
	C206.949554,137.819550 206.949554,140.907104 206.681335,143.728012 
	C206.145920,141.655380 205.878723,139.849411 205.478012,137.141129 
	C205.478012,141.930008 205.478012,145.724411 205.478012,149.030930 
	C206.863892,148.663498 207.913208,148.385300 208.962524,148.107117 
	C208.141434,149.145386 207.320343,150.183655 206.124023,151.735657 
	C205.516144,153.897827 205.283524,155.546234 205.050903,157.194656 
	C205.426926,157.241318 205.802933,157.287979 206.178955,157.334641 
	C206.440567,156.615601 206.702179,155.896576 206.963776,155.177536 
z"/>
<path fill="#526DB0" opacity="1.000000" stroke="none" 
	d="
M85.960106,95.126968 
	C88.060532,96.092567 90.160950,97.058174 92.589157,98.414169 
	C88.688362,102.894333 84.704002,107.288521 80.135040,110.954018 
	C77.598000,112.989380 75.460976,114.451294 76.645584,117.894653 
	C74.776031,118.428581 73.267014,119.044212 72.499779,119.357224 
	C71.564133,117.399094 70.770386,115.737923 70.016510,113.715424 
	C71.218307,112.131561 72.513573,111.006042 73.497269,109.653862 
	C74.203560,108.683006 74.493561,107.409302 75.344521,106.188202 
	C81.077042,105.856194 81.171806,102.365807 80.803246,98.215668 
	C82.742142,97.071953 84.351120,96.099457 85.960106,95.126968 
z"/>
<path fill="#8D97C4" opacity="1.000000" stroke="none" 
	d="
M58.779697,153.431656 
	C57.580566,152.182159 56.381439,150.932663 55.302933,149.256104 
	C58.285534,145.889862 61.147511,142.950699 64.394135,140.012695 
	C70.873062,139.114685 72.294937,132.475418 77.384628,129.803711 
	C79.451057,129.433273 81.228966,129.246750 83.028336,129.367218 
	C83.364357,130.426392 83.678917,131.178558 83.697357,131.974518 
	C82.938141,132.347260 82.475044,132.676208 81.707886,133.157349 
	C77.593292,137.538345 73.782761,141.767151 69.731766,146.163620 
	C69.320786,146.879700 69.150261,147.428116 68.650055,147.978973 
	C67.880806,147.980774 67.441238,147.980148 66.952820,147.654205 
	C65.870743,147.293671 64.386063,146.804962 63.884716,147.304062 
	C62.008766,149.171524 60.454556,151.362183 58.779697,153.431656 
z"/>
<path fill="#195593" opacity="1.000000" stroke="none" 
	d="
M190.461151,146.889633 
	C189.280350,146.716476 188.447144,146.381882 187.277283,146.013153 
	C188.820267,141.316757 190.699936,136.654495 192.579605,131.992233 
	C193.191269,131.988678 193.802933,131.985138 194.414597,131.981583 
	C196.361160,141.408768 198.307739,150.835953 200.270386,160.340988 
	C195.298828,160.795044 194.198044,159.269348 193.949203,153.004456 
	C193.868195,150.964386 193.345505,148.928116 192.838348,146.937592 
	C192.780411,146.710190 191.514557,146.790543 190.461151,146.889633 
z"/>
<path fill="#D8D9E9" opacity="1.000000" stroke="none" 
	d="
M87.993813,145.997910 
	C91.986610,146.870728 91.099937,148.543015 88.771400,150.532867 
	C86.169754,152.756088 83.616821,155.036285 80.781265,157.748291 
	C80.261375,158.403519 80.084366,158.658707 79.988800,158.970398 
	C79.988800,158.970398 79.951088,159.467072 79.578461,159.731369 
	C77.009697,161.561447 74.627831,162.924774 72.655411,164.734406 
	C68.316513,168.715195 64.184479,172.921448 59.968002,177.035675 
	C59.850086,175.584900 59.732170,174.134109 60.115005,172.321136 
	C65.255226,167.765503 69.955055,163.634995 74.466049,159.307602 
	C75.108391,158.691422 74.834717,157.120346 74.988708,155.659698 
	C75.001656,154.886154 75.010895,154.444138 75.394470,153.998535 
	C79.830200,153.044800 83.348061,151.428024 85.221687,147.276779 
	C85.537903,146.576172 87.039757,146.410660 87.993813,145.997910 
z"/>
<path fill="#566EA3" opacity="1.000000" stroke="none" 
	d="
M18.895432,137.446014 
	C18.916870,136.594910 18.993847,136.191345 19.316982,135.312714 
	C19.463161,134.351974 19.363180,133.866257 19.263199,133.380554 
	C19.501192,132.452927 19.739189,131.525299 20.290052,130.087677 
	C22.156979,125.416328 23.711037,121.254959 25.265095,117.093590 
	C25.568699,117.020821 25.765926,116.835098 26.161625,116.220230 
	C26.655701,115.824211 26.844929,115.744362 27.247612,115.767197 
	C27.461071,115.869881 27.931847,115.816940 28.226364,115.910988 
	C28.724417,115.972519 28.927950,115.940010 29.270401,116.058701 
	C29.628778,116.418678 29.705002,116.670776 29.637985,116.966202 
	C23.851496,127.002792 22.532003,137.949692 23.010864,150.064346 
	C22.354807,151.571472 21.742493,152.286209 21.130177,153.000961 
	C20.403774,147.965149 19.677372,142.929337 18.895432,137.446014 
z"/>
<path fill="#677ABA" opacity="1.000000" stroke="none" 
	d="
M77.006119,117.976364 
	C75.460976,114.451294 77.598000,112.989380 80.135040,110.954018 
	C84.704002,107.288521 88.688362,102.894333 92.952080,98.451279 
	C96.639633,95.072800 99.372894,98.416245 102.351074,99.716873 
	C101.848045,99.990219 101.431709,100.008644 100.662865,100.050400 
	C94.879372,104.982933 89.448372,109.892128 83.696358,114.958092 
	C81.573586,117.283119 79.771828,119.451370 77.970078,121.619621 
	C77.648758,121.375969 77.327438,121.132317 77.006119,120.888664 
	C77.006119,119.917900 77.006119,118.947128 77.006119,117.976364 
z"/>
<path fill="#98A1CD" opacity="1.000000" stroke="none" 
	d="
M83.993477,131.930725 
	C83.678917,131.178558 83.364357,130.426392 83.213921,129.094452 
	C84.190102,127.044174 85.002174,125.573654 86.139732,123.964699 
	C90.181664,120.547501 93.884506,117.253181 97.618515,113.994545 
	C101.084335,110.969963 104.583389,107.983482 108.067818,104.980225 
	C109.036018,105.773209 110.004211,106.566193 110.707779,107.700500 
	C109.629112,109.028694 108.815071,110.015572 107.894592,111.222092 
	C107.590332,111.715866 107.330315,111.904045 106.640533,112.007149 
	C103.038155,114.588135 99.602798,116.957626 96.617447,119.799797 
	C92.560844,123.661842 88.848335,127.885315 84.739304,131.958984 
	C84.490356,131.964188 83.993477,131.930725 83.993477,131.930725 
z"/>
<path fill="#8793C6" opacity="1.000000" stroke="none" 
	d="
M107.927567,104.681137 
	C104.583389,107.983482 101.084335,110.969963 97.618515,113.994545 
	C93.884506,117.253181 90.181664,120.547501 85.762978,123.922203 
	C84.377663,123.161880 83.024956,122.158501 83.172966,121.484818 
	C83.380127,120.541840 84.626961,119.732765 85.571289,119.068756 
	C86.931763,118.112122 88.420059,117.337273 89.980087,116.132652 
	C92.936386,112.817650 96.039398,110.060814 98.490494,106.812119 
	C99.883194,104.966209 100.209053,102.315399 101.015366,100.027069 
	C101.431709,100.008644 101.848045,99.990219 102.575851,99.988174 
	C104.520653,101.463715 106.153976,102.922874 107.927567,104.681137 
z"/>
<path fill="#B0B6D7" opacity="1.000000" stroke="none" 
	d="
M83.697357,131.974518 
	C83.993477,131.930725 84.490356,131.964188 85.111328,131.965714 
	C95.558029,128.227463 100.535812,119.320404 107.008087,112.006279 
	C107.330315,111.904045 107.590332,111.715866 108.256134,111.219254 
	C109.864967,110.643974 111.005814,110.291176 112.146667,109.938377 
	C112.752495,110.387550 113.358322,110.836723 113.988693,111.865250 
	C114.008308,112.628609 114.003380,112.812614 113.998444,112.996628 
	C113.998444,112.996628 113.501808,112.998497 112.906219,113.033798 
	C106.204285,117.416428 100.673965,122.316689 97.009842,129.008392 
	C95.006584,131.740326 93.003326,134.472244 91.001923,137.573425 
	C89.207642,136.711884 87.411507,135.481079 84.983788,134.105209 
	C83.572121,133.641800 82.792038,133.323486 82.011948,133.005157 
	C82.475044,132.676208 82.938141,132.347260 83.697357,131.974518 
z"/>
<path fill="#A1AAD5" opacity="1.000000" stroke="none" 
	d="
M81.707886,133.157349 
	C82.792038,133.323486 83.572121,133.641800 84.668503,133.989319 
	C85.249451,135.424194 85.514107,136.829880 85.451500,138.558502 
	C83.492851,139.318695 81.360802,139.245773 80.311188,140.275833 
	C73.399002,147.059250 66.719963,154.080246 59.964905,161.023773 
	C59.718605,159.910065 59.472309,158.796341 59.607918,157.320099 
	C62.327095,153.964890 64.664375,150.972214 67.001663,147.979523 
	C67.441238,147.980148 67.880806,147.980774 68.946388,147.956741 
	C69.705673,147.286728 69.838951,146.641342 69.972229,145.995972 
	C73.782761,141.767151 77.593292,137.538345 81.707886,133.157349 
z"/>
<path fill="#39609C" opacity="1.000000" stroke="none" 
	d="
M74.969276,106.270691 
	C74.493561,107.409302 74.203560,108.683006 73.497269,109.653862 
	C72.513573,111.006042 71.218307,112.131561 69.629730,113.688065 
	C68.056526,114.390198 66.859024,114.647903 65.773666,115.148682 
	C63.218872,116.327438 60.717590,117.622185 58.151215,118.498276 
	C59.377708,114.747276 60.647652,111.368019 61.940750,107.747528 
	C61.963913,107.506287 61.952366,107.021744 62.241814,106.902420 
	C64.025528,106.729568 65.519798,106.676033 67.014069,106.622513 
	C68.416756,106.165215 69.819435,105.707924 71.819122,105.324547 
	C73.267181,105.689209 74.118233,105.979950 74.969276,106.270691 
z"/>
<path fill="#1B5A9A" opacity="1.000000" stroke="none" 
	d="
M124.720970,133.997345 
	C124.720970,141.420792 124.720970,148.844238 124.720970,156.757416 
	C127.873421,156.757416 130.592133,156.757416 133.310852,156.757416 
	C133.650925,157.219177 133.991013,157.680939 134.331100,158.142685 
	C133.337372,159.076111 132.433197,160.663498 131.332260,160.814285 
	C128.573013,161.192139 125.724648,160.919510 122.457352,160.368958 
	C122.003967,152.580856 122.000610,145.331604 122.009598,138.082352 
	C122.012009,136.134521 121.572769,133.868301 124.720970,133.997345 
z"/>
<path fill="#E5E7F4" opacity="1.000000" stroke="none" 
	d="
M59.975151,177.403015 
	C64.184479,172.921448 68.316513,168.715195 72.655411,164.734406 
	C74.627831,162.924774 77.009697,161.561447 79.564392,159.980026 
	C79.961914,162.235657 80.139740,164.040894 77.731079,165.971298 
	C72.867470,169.869171 68.783417,174.730469 64.269768,179.082306 
	C63.393661,179.927017 62.025398,180.261261 60.523647,181.010910 
	C60.293411,179.632706 60.137856,178.701538 59.975151,177.403015 
z"/>
<path fill="#E5E7F4" opacity="1.000000" stroke="none" 
	d="
M104.775879,130.456100 
	C108.886963,126.425819 113.103447,122.747055 117.674957,119.037155 
	C122.176575,123.250046 119.242928,126.127243 115.094383,128.855530 
	C111.526985,131.201630 108.952263,133.884949 108.931030,138.794510 
	C107.560120,136.401901 106.220711,133.604767 104.775879,130.456100 
z"/>
<path fill="#B0B6D7" opacity="1.000000" stroke="none" 
	d="
M59.944675,161.354019 
	C66.719963,154.080246 73.399002,147.059250 80.311188,140.275833 
	C81.360802,139.245773 83.492851,139.318695 85.462700,138.917191 
	C85.846489,139.128555 85.891808,139.304184 85.642670,139.772018 
	C84.900978,140.368423 84.453751,140.672592 83.983612,141.305313 
	C83.304092,142.753571 82.647491,143.873291 81.637390,144.998810 
	C80.525993,145.673187 79.768112,146.341797 78.985336,147.306549 
	C78.638641,148.066956 78.316826,148.531189 77.641312,149.000473 
	C76.531502,149.672913 75.775383,150.340302 75.012619,151.005249 
	C75.005981,151.002838 75.008743,151.019989 74.638535,151.053223 
	C73.235313,151.787506 72.124016,152.397446 71.183052,153.205658 
	C67.418488,156.439102 63.706814,159.734131 59.975578,163.006378 
	C59.958530,162.565674 59.941486,162.124969 59.944675,161.354019 
z"/>
<path fill="#F6D43D" opacity="1.000000" stroke="none" 
	d="
M64.718925,88.050262 
	C64.866333,87.623413 65.013741,87.196556 65.471725,86.253754 
	C65.940559,85.581863 66.098808,85.425919 66.236038,85.319611 
	C66.215012,85.369232 66.172508,85.272987 66.325630,85.160934 
	C66.478752,85.048889 66.821747,84.886566 67.013458,84.856926 
	C67.297119,84.739708 67.481796,84.600914 67.466232,84.572731 
	C67.351219,84.364517 67.196297,84.178352 66.928268,84.007675 
	C66.802612,84.030090 66.551651,84.076927 66.551651,84.076927 
	C66.679619,83.901176 66.807579,83.725426 67.294601,83.159286 
	C67.870842,82.545837 67.969704,82.278885 67.950241,81.968040 
	C67.950241,81.968040 67.998238,81.992500 68.224892,81.860016 
	C68.567101,81.400093 68.682655,81.072647 68.798210,80.745209 
	C68.798210,80.745209 68.873436,80.343613 69.227005,79.991089 
	C70.083084,78.494621 70.585587,77.350677 71.088089,76.206734 
	C71.088081,76.206734 71.098793,76.106987 71.439468,76.035873 
	C72.197060,75.361023 72.613968,74.757278 73.030869,74.153534 
	C73.264603,73.887840 73.498344,73.622139 74.256607,73.036774 
	C77.251297,72.084297 79.721458,71.451492 82.191620,70.818680 
	C82.766823,71.301796 83.342026,71.784920 84.065399,72.778091 
	C84.450516,73.523582 84.687454,73.759018 84.924393,73.994461 
	C84.988449,74.151375 85.052505,74.308281 84.742538,74.746178 
	C83.784004,75.139801 83.199501,75.252434 82.614998,75.365067 
	C81.994850,75.306671 81.374702,75.248268 80.119781,75.122208 
	C78.652092,75.650925 77.819168,76.247299 76.986244,76.843681 
	C76.986244,76.843681 76.936867,76.938110 76.596664,76.974556 
	C75.813103,77.572868 75.369743,78.134735 74.926384,78.696602 
	C74.101471,79.646950 73.276566,80.597298 72.004471,81.892662 
	C71.418488,82.557632 71.279694,82.877594 71.140900,83.197556 
	C70.942268,83.591164 70.743637,83.984772 70.280952,84.798416 
	C69.972076,85.394447 69.927246,85.570427 69.882416,85.746407 
	C69.882416,85.746407 69.862938,85.881538 69.602005,86.075836 
	C69.195892,86.752464 69.050720,87.234795 68.905540,87.717133 
	C68.611282,88.266777 68.317032,88.816429 67.581543,89.662598 
	C66.413239,89.615768 65.686172,89.272415 64.916870,88.704498 
	C64.874619,88.479927 64.718925,88.050262 64.718925,88.050262 
z"/>
<path fill="#7582B9" opacity="1.000000" stroke="none" 
	d="
M64.009483,140.011536 
	C61.147511,142.950699 58.285534,145.889862 55.107735,148.997284 
	C51.981888,148.960678 49.945759,148.205887 51.831188,144.037033 
	C52.005081,142.188461 52.021011,141.079575 52.264568,140.073608 
	C52.925606,140.417191 53.359020,140.657837 54.098991,140.932526 
	C54.610878,140.977783 54.816204,140.988968 55.377445,140.993744 
	C57.841373,139.309036 59.949379,137.630722 62.303925,136.163757 
	C63.036800,137.587234 63.523140,138.799393 64.009483,140.011536 
z"/>
<path fill="#FDF9DE" opacity="1.000000" stroke="none" 
	d="
M19.006788,105.001892 
	C18.329639,100.250626 18.076506,95.606270 22.818069,92.289223 
	C24.246059,92.320114 25.120504,92.143509 25.994947,91.966896 
	C26.445354,91.970528 26.895760,91.974159 27.853680,92.311630 
	C30.239704,93.099045 32.118217,93.552620 33.996731,94.006187 
	C35.458309,94.918137 36.919888,95.830078 38.690422,97.217888 
	C39.353363,98.471947 39.707348,99.250130 40.005745,100.361809 
	C39.958672,101.144829 39.967186,101.594353 39.975704,102.043884 
	C39.975704,102.043884 39.979820,101.979752 39.654755,101.936714 
	C38.657951,102.114601 37.986206,102.335526 37.157761,102.205856 
	C31.080320,94.712936 26.559973,93.386909 21.343338,96.675476 
	C21.200016,99.751076 21.076725,102.396812 20.629002,105.032974 
	C19.871975,105.016235 19.439381,105.009064 19.006788,105.001892 
z"/>
<path fill="#F0D654" opacity="1.000000" stroke="none" 
	d="
M29.998775,116.951797 
	C29.705002,116.670776 29.628778,116.418678 29.385183,115.826050 
	C28.929228,114.565704 28.497406,113.689186 28.460361,112.854782 
	C29.911228,112.905312 30.967319,112.913727 32.023411,112.922142 
	C37.869701,114.709846 43.715992,116.497551 49.753166,118.587074 
	C47.908527,119.155998 45.810226,119.873055 43.850132,119.599571 
	C39.317696,118.967186 34.852207,117.854996 29.998775,116.951797 
z"/>
<path fill="#526DB0" opacity="1.000000" stroke="none" 
	d="
M52.036942,139.970673 
	C52.021011,141.079575 52.005081,142.188461 51.973007,143.712891 
	C50.065277,144.222748 48.173687,144.317047 45.137810,144.468414 
	C44.861656,141.626892 44.562443,138.548080 44.892395,135.131622 
	C47.746471,135.253876 49.971386,135.713776 52.184097,136.551056 
	C52.126904,137.942520 52.081921,138.956604 52.036942,139.970673 
z"/>
<path fill="#C8CEE8" opacity="1.000000" stroke="none" 
	d="
M74.984993,155.991211 
	C74.834717,157.120346 75.108391,158.691422 74.466049,159.307602 
	C69.955055,163.634995 65.255226,167.765503 60.261940,172.009735 
	C59.911537,170.979782 59.914955,169.899033 60.304104,168.373169 
	C61.408707,167.320190 62.124004,166.708069 62.847042,166.105225 
	C66.891991,162.732651 70.938812,159.362305 74.984993,155.991211 
z"/>
<path fill="#BCC0DE" opacity="1.000000" stroke="none" 
	d="
M74.988708,155.659698 
	C70.938812,159.362305 66.891991,162.732651 62.847042,166.105225 
	C62.124004,166.708069 61.408707,167.320190 60.331612,167.970139 
	C59.961159,166.621201 59.948933,165.230164 59.956146,163.422745 
	C63.706814,159.734131 67.418488,156.439102 71.183052,153.205658 
	C72.124016,152.397446 73.235313,151.787506 74.638611,151.425537 
	C75.012634,152.510468 75.016380,153.256287 75.020126,154.002106 
	C75.010895,154.444138 75.001656,154.886154 74.988708,155.659698 
z"/>
<path fill="#C8CEE8" opacity="1.000000" stroke="none" 
	d="
M75.394470,153.998535 
	C75.016380,153.256287 75.012634,152.510468 75.008820,151.392319 
	C75.008743,151.019989 75.005981,151.002838 75.332199,150.979279 
	C76.437286,150.302292 77.216156,149.648865 77.995018,148.995422 
	C78.316826,148.531189 78.638641,148.066956 79.338730,147.300369 
	C80.474968,146.329681 81.232933,145.661346 81.990898,144.993011 
	C82.647491,143.873291 83.304092,142.753571 84.333702,141.315994 
	C85.172569,141.042297 85.638420,141.086456 86.104279,141.130615 
	C86.359985,141.578415 86.615685,142.026199 87.021973,142.938049 
	C87.330292,143.676544 87.554733,143.875778 87.845894,143.999832 
	C87.882683,144.443573 87.919472,144.887314 87.975037,145.664490 
	C87.039757,146.410660 85.537903,146.576172 85.221687,147.276779 
	C83.348061,151.428024 79.830200,153.044800 75.394470,153.998535 
z"/>
<path fill="#62719C" opacity="1.000000" stroke="none" 
	d="
M21.103664,153.383209 
	C21.742493,152.286209 22.354807,151.571472 22.963657,150.533493 
	C26.062201,157.409988 29.164211,164.609711 32.249458,172.278809 
	C32.105762,172.880722 31.978832,173.013275 31.851904,173.145844 
	C25.800642,168.053192 23.440804,160.908264 21.103664,153.383209 
z"/>
<path fill="#1D5895" opacity="1.000000" stroke="none" 
	d="
M222.683304,159.262863 
	C223.046051,159.381363 223.056137,159.647110 223.077820,160.311920 
	C219.391357,161.681915 216.876266,160.452927 215.064590,156.998550 
	C213.706055,154.408127 211.760162,152.125763 210.288055,149.471695 
	C211.610443,148.455490 212.720520,147.673828 213.830597,146.892181 
	C213.830597,146.892181 213.915115,146.939377 213.952286,146.970261 
	C216.769852,151.137466 219.550232,155.273773 222.683304,159.262863 
z"/>
<path fill="#39609C" opacity="1.000000" stroke="none" 
	d="
M52.196304,136.173676 
	C49.971386,135.713776 47.746471,135.253876 45.197830,134.882263 
	C47.202454,131.929367 49.530807,128.888168 51.966095,125.530151 
	C52.256313,125.183350 52.439602,125.153374 52.992844,125.140640 
	C53.362793,125.157883 53.588238,125.117775 53.700447,125.528885 
	C53.521393,129.061508 53.230133,132.183029 52.830112,135.464035 
	C52.611374,135.868988 52.436356,136.052368 52.196304,136.173676 
z"/>
<path fill="#39609C" opacity="1.000000" stroke="none" 
	d="
M85.563744,95.064774 
	C84.351120,96.099457 82.742142,97.071953 80.499184,98.252106 
	C78.250801,100.285637 76.636398,102.111504 75.372932,103.540474 
	C73.820419,102.613754 72.427002,101.781998 71.033577,100.950241 
	C73.368828,95.982986 79.540871,93.385727 85.563744,95.064774 
z"/>
<path fill="#F0D654" opacity="1.000000" stroke="none" 
	d="
M64.959114,88.929062 
	C65.686172,89.272415 66.413239,89.615768 67.463005,89.951279 
	C66.513535,94.327698 65.241371,98.711967 63.553917,103.517578 
	C62.428444,103.961922 61.718254,103.984932 61.003708,104.003754 
	C60.999352,103.999550 60.991863,103.993881 60.988518,103.576988 
	C60.979092,101.771957 60.973011,100.383827 60.966934,98.995689 
	C61.172405,98.160347 61.377880,97.325012 62.151321,96.242325 
	C63.312065,95.669662 63.904842,95.344353 64.497620,95.019043 
	C63.926682,94.645996 63.355743,94.272942 62.784805,93.899895 
	C62.923931,92.896858 63.063057,91.893814 63.281624,90.519890 
	C63.619850,89.996368 63.808838,89.782143 64.214691,89.272247 
	C64.501350,89.038170 64.959114,88.929054 64.959114,88.929062 
z"/>
<path fill="#195593" opacity="1.000000" stroke="none" 
	d="
M124.803894,133.615723 
	C121.572769,133.868301 122.012009,136.134521 122.009598,138.082352 
	C122.000610,145.331604 122.003967,152.580856 122.003464,160.281036 
	C121.659737,160.269791 121.017517,159.809418 121.014671,159.345123 
	C120.956238,149.828949 120.970757,140.312302 120.970757,130.795761 
	C121.431427,130.510162 121.892090,130.224548 122.352760,129.938950 
	C123.197441,131.037338 124.042130,132.135712 124.803894,133.615723 
z"/>
<path fill="#094F99" opacity="1.000000" stroke="none" 
	d="
M213.824020,146.554901 
	C212.720520,147.673828 211.610443,148.455490 210.193420,149.135895 
	C209.561157,148.980957 209.307281,148.816818 209.043655,148.324677 
	C207.913208,148.385300 206.863892,148.663498 205.478012,149.030930 
	C205.478012,145.724411 205.478012,141.930008 205.478012,137.141129 
	C205.878723,139.849411 206.145920,141.655380 206.888123,144.031372 
	C208.811691,144.683563 210.260269,144.765762 211.708847,144.847946 
	C212.411713,145.304504 213.114578,145.761063 213.824020,146.554901 
z"/>
<path fill="#E1F3FC" opacity="1.000000" stroke="none" 
	d="
M71.031975,101.287964 
	C72.427002,101.781998 73.820419,102.613754 75.372932,103.540474 
	C76.636398,102.111504 78.250801,100.285637 80.169266,98.423340 
	C81.171806,102.365807 81.077042,105.856194 75.344521,106.188202 
	C74.118233,105.979950 73.267181,105.689209 72.220436,105.116821 
	C71.693291,103.765350 71.361832,102.695518 71.031975,101.287964 
z"/>
<path fill="#98A1CD" opacity="1.000000" stroke="none" 
	d="
M66.952820,147.654221 
	C64.664375,150.972214 62.327095,153.964890 59.650223,156.962769 
	C59.154625,156.023071 58.998619,155.078201 58.811157,153.782486 
	C60.454556,151.362183 62.008766,149.171524 63.884716,147.304062 
	C64.386063,146.804962 65.870743,147.293671 66.952820,147.654221 
z"/>
<path fill="#62719C" opacity="1.000000" stroke="none" 
	d="
M40.343178,102.056137 
	C39.967186,101.594353 39.958672,101.144829 40.249031,100.284180 
	C40.754128,99.613579 40.960346,99.354103 41.166565,99.094620 
	C45.848534,96.913826 50.530502,94.733025 55.610779,92.513367 
	C56.556385,92.782005 57.103680,93.089500 57.169163,93.126297 
	C51.851322,96.015533 46.280983,99.041962 40.343178,102.056137 
z"/>
<path fill="#E6D476" opacity="1.000000" stroke="none" 
	d="
M82.757507,75.685806 
	C83.199501,75.252434 83.784004,75.139801 84.814323,74.990051 
	C86.557014,77.477539 87.853897,80.002144 89.150780,82.526756 
	C88.616577,82.830803 88.082382,83.134850 87.548180,83.438904 
	C85.998795,80.961449 84.449402,78.483994 82.757507,75.685806 
z"/>
<path fill="#FCF6C1" opacity="1.000000" stroke="none" 
	d="
M18.778141,105.183762 
	C19.439381,105.009064 19.871975,105.016235 20.641739,105.382553 
	C20.982759,107.499123 20.986605,109.256546 20.774654,111.121063 
	C20.263153,111.382019 20.041763,111.608536 19.577757,111.902061 
	C18.839439,111.925400 18.418047,111.954346 17.555588,111.943520 
	C14.761629,111.966995 12.408740,112.030258 10.042794,111.823868 
	C10.028634,111.374237 10.027529,111.194260 10.026423,111.014282 
	C11.141813,110.778694 12.257205,110.543106 14.074308,110.172531 
	C16.452654,109.660934 19.934719,111.269630 18.091455,107.022469 
	C18.244135,106.470192 18.396816,105.917908 18.778141,105.183762 
z"/>
<path fill="#E6D476" opacity="1.000000" stroke="none" 
	d="
M82.031670,70.505577 
	C79.721458,71.451492 77.251297,72.084297 74.443329,72.848061 
	C75.562798,68.896767 78.373657,68.586983 82.031670,70.505577 
z"/>
<path fill="#E6D476" opacity="1.000000" stroke="none" 
	d="
M61.008064,104.007950 
	C61.718254,103.984932 62.428444,103.961922 63.491383,103.894470 
	C64.887505,104.561646 65.930878,105.273254 66.994156,106.303680 
	C65.519798,106.676033 64.025528,106.729568 61.982872,106.692398 
	C61.292347,105.737114 61.150204,104.872528 61.008064,104.007950 
z"/>
<path fill="#62719C" opacity="1.000000" stroke="none" 
	d="
M37.055351,179.590393 
	C36.389359,178.745911 35.959862,178.155975 35.530369,177.566040 
	C35.768528,177.335999 36.006687,177.105957 36.244846,176.875931 
	C37.741020,178.220673 39.237194,179.565399 40.440857,180.647247 
	C40.328850,181.423340 40.318611,181.494263 40.308372,181.565201 
	C39.302868,180.991776 38.297359,180.418350 37.055351,179.590393 
z"/>
<path fill="#FCFDF4" opacity="1.000000" stroke="none" 
	d="
M17.716942,107.018936 
	C19.934719,111.269630 16.452654,109.660934 14.392170,110.033936 
	C15.119690,109.025352 16.231060,108.020378 17.716942,107.018936 
z"/>
<path fill="#FCFDF4" opacity="1.000000" stroke="none" 
	d="
M9.645597,111.008545 
	C10.027529,111.194260 10.028634,111.374237 9.828499,111.928246 
	C9.335664,112.460594 9.127331,112.693420 9.001129,113.000381 
	C9.000000,113.000000 8.999821,113.001694 8.694305,112.983322 
	C7.930506,113.311554 7.472222,113.658150 7.007629,114.001945 
	C7.001320,113.999138 7.004176,114.014542 6.737444,114.093048 
	C5.995024,114.452667 5.519336,114.733795 5.043648,115.014915 
	C4.613973,111.900612 4.990151,111.543060 9.645597,111.008545 
z"/>
<path fill="#F0D654" opacity="1.000000" stroke="none" 
	d="
M5.026101,115.429726 
	C5.519336,114.733795 5.995024,114.452667 6.696148,114.471268 
	C6.861111,117.251251 6.800637,119.731522 6.740162,122.211792 
	C6.193428,121.650803 5.646695,121.089821 4.949293,120.259399 
	C4.868601,118.608154 4.938578,117.226341 5.026101,115.429726 
z"/>
<path fill="#094F99" opacity="1.000000" stroke="none" 
	d="
M206.906891,154.712830 
	C206.702179,155.896576 206.440567,156.615601 206.178955,157.334641 
	C205.802933,157.287979 205.426926,157.241318 205.050903,157.194656 
	C205.283524,155.546234 205.516144,153.897827 206.030212,152.078918 
	C206.459549,152.175415 206.607407,152.442398 206.428192,153.065918 
	C206.101105,153.422424 206.113983,153.669250 206.113983,153.669250 
	C206.359314,153.862198 206.604645,154.055161 206.906891,154.712830 
z"/>
<path fill="#FCFDF4" opacity="1.000000" stroke="none" 
	d="
M33.823105,93.679008 
	C32.118217,93.552620 30.239704,93.099045 28.191448,92.317238 
	C29.897631,92.443275 31.773556,92.897552 33.823105,93.679008 
z"/>
<path fill="#A1AAD5" opacity="1.000000" stroke="none" 
	d="
M112.091232,109.651550 
	C111.005814,110.291176 109.864967,110.643974 108.362572,110.999603 
	C108.815071,110.015572 109.629112,109.028694 110.799255,108.006187 
	C111.448845,108.435272 111.742325,108.900002 112.091232,109.651550 
z"/>
<path fill="#62719C" opacity="1.000000" stroke="none" 
	d="
M32.439472,172.566467 
	C33.651611,173.723953 34.656971,175.063171 35.662327,176.402390 
	C35.341789,176.659302 35.021248,176.916229 34.700706,177.173157 
	C33.830040,176.055038 32.959377,174.936920 31.970306,173.482330 
	C31.978832,173.013275 32.105762,172.880722 32.439472,172.566467 
z"/>
<path fill="#E6D476" opacity="1.000000" stroke="none" 
	d="
M70.764786,76.295105 
	C70.585587,77.350677 70.083084,78.494621 69.313980,79.806244 
	C69.512070,78.777107 69.976776,77.580299 70.764786,76.295105 
z"/>
<path fill="#FCFCF5" opacity="1.000000" stroke="none" 
	d="
M66.257065,85.269981 
	C66.098808,85.425919 65.940559,85.581863 65.500771,85.915268 
	C65.461647,85.406281 65.704048,84.719826 66.249054,84.055153 
	C66.551651,84.076927 66.802612,84.030090 66.822250,84.220665 
	C66.841881,84.411240 66.821747,84.886566 66.821747,84.886566 
	C66.821747,84.886566 66.478752,85.048889 66.353523,85.156418 
	C66.228294,85.263939 66.257065,85.269981 66.257065,85.269981 
z"/>
<path fill="#E6D476" opacity="1.000000" stroke="none" 
	d="
M77.314651,76.860535 
	C77.819168,76.247299 78.652092,75.650925 79.808395,75.104828 
	C79.302200,75.729202 78.472626,76.303291 77.314651,76.860535 
z"/>
<path fill="#FCFDF4" opacity="1.000000" stroke="none" 
	d="
M25.826973,91.737228 
	C25.120504,92.143509 24.246059,92.320114 23.187187,92.246788 
	C23.888172,91.833755 24.773586,91.670662 25.826973,91.737228 
z"/>
<path fill="#FCFDF4" opacity="1.000000" stroke="none" 
	d="
M39.389900,92.464340 
	C38.941589,92.348610 38.666767,92.066231 38.413177,91.765930 
	C38.406689,91.758247 38.633183,91.553825 38.751015,91.441154 
	C39.022732,91.725883 39.294449,92.010612 39.389900,92.464340 
z"/>
<path fill="#FCFDF4" opacity="1.000000" stroke="none" 
	d="
M23.389900,88.464340 
	C22.941685,88.348656 22.666937,88.066368 22.413404,87.766167 
	C22.406927,87.758499 22.633364,87.554131 22.751179,87.441498 
	C23.022835,87.726128 23.294489,88.010765 23.389900,88.464340 
z"/>
<path fill="#E6D476" opacity="1.000000" stroke="none" 
	d="
M75.223030,78.687790 
	C75.369743,78.134735 75.813103,77.572868 76.543404,76.976089 
	C76.393456,77.520432 75.956566,78.099701 75.223030,78.687790 
z"/>
<path fill="#FCFDF4" opacity="1.000000" stroke="none" 
	d="
M40.901077,98.939240 
	C40.960346,99.354103 40.754128,99.613579 40.304623,99.950684 
	C39.707348,99.250130 39.353363,98.471947 38.993275,97.350098 
	C39.536644,97.598923 40.086117,98.191391 40.901077,98.939240 
z"/>
<path fill="#E6D476" opacity="1.000000" stroke="none" 
	d="
M72.733109,74.191986 
	C72.613968,74.757278 72.197060,75.361023 71.486809,76.019287 
	C71.607422,75.459351 72.021385,74.844894 72.733109,74.191986 
z"/>
<path fill="#1D5895" opacity="1.000000" stroke="none" 
	d="
M228.252716,155.842117 
	C228.182358,155.470306 228.340332,154.908096 228.741852,154.172241 
	C228.817291,154.549652 228.649170,155.100677 228.252716,155.842117 
z"/>
<path fill="#195593" opacity="1.000000" stroke="none" 
	d="
M185.819244,148.258484 
	C185.857330,148.587311 185.700653,149.124603 185.321411,149.839081 
	C185.274048,149.499847 185.449265,148.983383 185.819244,148.258484 
z"/>
<path fill="#1D5895" opacity="1.000000" stroke="none" 
	d="
M227.296936,157.936005 
	C227.201523,157.529404 227.359680,156.945724 227.774567,156.188171 
	C227.871017,156.595840 227.710754,157.177368 227.296936,157.936005 
z"/>
<path fill="#A1AAD5" opacity="1.000000" stroke="none" 
	d="
M86.074295,140.850632 
	C85.638420,141.086456 85.172569,141.042297 84.356613,140.987457 
	C84.453751,140.672592 84.900978,140.368423 85.629845,140.043793 
	C85.955765,140.205780 86.000038,140.388214 86.074295,140.850632 
z"/>
<path fill="#E6D476" opacity="1.000000" stroke="none" 
	d="
M69.146629,87.593277 
	C69.050720,87.234795 69.195892,86.752464 69.544281,86.112274 
	C69.627571,86.459427 69.507645,86.964424 69.146629,87.593277 
z"/>
<path fill="#BCC0DE" opacity="1.000000" stroke="none" 
	d="
M113.999207,112.998474 
	C114.003380,112.812614 114.008308,112.628609 114.038696,112.168518 
	C114.320274,112.101097 114.576385,112.309746 114.659668,112.762070 
	C114.486824,113.005745 114.004517,113.001831 114.004517,113.001831 
	C114.004517,113.001831 113.999962,113.000328 113.999207,112.998474 
z"/>
<path fill="#E6D476" opacity="1.000000" stroke="none" 
	d="
M84.917572,73.735207 
	C84.687454,73.759018 84.450516,73.523582 84.200691,73.029327 
	C84.428787,73.005669 84.669762,73.240807 84.917572,73.735207 
z"/>
<path fill="#E5E7F4" opacity="1.000000" stroke="none" 
	d="
M80.206291,158.869720 
	C80.084366,158.658707 80.261375,158.403519 80.726578,158.092590 
	C80.867958,158.310745 80.698112,158.573654 80.206291,158.869720 
z"/>
<path fill="#B0B6D7" opacity="1.000000" stroke="none" 
	d="
M114.146378,113.241562 
	C114.004517,113.001831 114.486824,113.005745 114.727707,113.005951 
	C115.022667,113.167053 115.076752,113.327957 115.202484,113.734070 
	C114.945496,113.813278 114.616875,113.647285 114.146378,113.241562 
z"/>
<path fill="#1A5694" opacity="1.000000" stroke="none" 
	d="
M206.155579,153.586594 
	C206.113983,153.669250 206.101105,153.422424 206.099823,153.384888 
	C206.098541,153.347351 206.197174,153.503937 206.155579,153.586594 
z"/>
<path fill="#D8D9E9" opacity="1.000000" stroke="none" 
	d="
M87.780632,143.778748 
	C87.554733,143.875778 87.330292,143.676544 87.093460,143.186310 
	C87.308540,143.093994 87.542213,143.289734 87.780632,143.778748 
z"/>
<path fill="#FCFCF5" opacity="1.000000" stroke="none" 
	d="
M64.916870,88.704491 
	C64.959114,88.929054 64.501350,89.038170 64.267303,89.060837 
	C64.059120,88.785530 64.173119,88.526329 64.547089,88.178093 
	C64.718925,88.050262 64.874619,88.479927 64.916870,88.704491 
z"/>
<path fill="#E6D476" opacity="1.000000" stroke="none" 
	d="
M68.581055,80.886520 
	C68.682655,81.072647 68.567101,81.400093 68.205956,81.840416 
	C68.094872,81.644814 68.229385,81.336327 68.581055,80.886520 
z"/>
<path fill="#E6D476" opacity="1.000000" stroke="none" 
	d="
M70.067245,85.734131 
	C69.927246,85.570427 69.972076,85.394447 70.162605,84.985977 
	C70.370590,84.982925 70.460129,85.209946 70.480873,85.443092 
	C70.488487,85.528557 70.333107,85.628517 70.067245,85.734131 
z"/>
<path fill="#E6D476" opacity="1.000000" stroke="none" 
	d="
M67.750290,82.073898 
	C67.969704,82.278885 67.870842,82.545837 67.471252,82.885185 
	C67.209129,82.674461 67.296295,82.400551 67.750290,82.073898 
z"/>
<path fill="#E6D476" opacity="1.000000" stroke="none" 
	d="
M71.373322,83.076065 
	C71.279694,82.877594 71.418488,82.557632 71.809151,82.137901 
	C71.909256,82.343613 71.757500,82.649094 71.373322,83.076065 
z"/>
<path fill="#E1F3FC" opacity="1.000000" stroke="none" 
	d="
M234.703064,141.776367 
	C235.349884,140.420151 235.813522,139.382339 236.556091,137.720154 
	C238.383789,141.877869 239.984894,145.520142 241.779465,149.602509 
	C238.203583,149.602509 235.177673,149.602509 231.487000,149.602509 
	C232.528442,147.024475 233.524155,144.559631 234.703064,141.776367 
z"/>
<path fill="#F6D43D" opacity="1.000000" stroke="none" 
	d="
M6.752670,122.196098 
	C6.800637,119.731522 6.861111,117.251251 6.962881,114.392761 
	C7.004176,114.014542 7.001320,113.999138 7.304784,113.986877 
	C8.072106,113.650314 8.535964,113.326004 8.999822,113.001694 
	C8.999821,113.001694 9.000000,113.000000 9.440166,113.015961 
	C12.585773,112.682373 15.291213,112.332840 17.996655,111.983299 
	C18.418047,111.954346 18.839439,111.925400 19.945986,112.083595 
	C22.532494,112.457077 24.433847,112.643410 26.619923,112.800064 
	C27.257278,112.655701 27.609911,112.541039 28.013443,112.516243 
	C28.064342,112.606110 28.065586,112.812675 28.065586,112.812675 
	C28.497406,113.689186 28.929228,114.565704 29.246265,115.674866 
	C28.927950,115.940010 28.724417,115.972519 28.166086,115.763741 
	C27.517056,115.288292 27.258011,115.335648 27.034155,115.664513 
	C26.844929,115.744362 26.655701,115.824211 26.176647,116.009430 
	C22.213594,116.090240 18.540369,116.065681 14.084732,116.020805 
	C11.898368,117.037903 10.494417,118.075310 9.090465,119.112717 
	C9.090463,119.112717 9.018710,119.059647 8.797064,119.220306 
	C8.485008,119.776283 8.394600,120.171600 8.304191,120.566910 
	C8.441301,120.866135 8.578412,121.165352 8.224316,121.745102 
	C7.418986,122.083153 7.104864,122.140678 6.790742,122.198204 
	C6.790742,122.198204 6.765179,122.180405 6.752670,122.196098 
z"/>
<path fill="#F6FCFC" opacity="1.000000" stroke="none" 
	d="
M24.851612,117.203751 
	C23.711037,121.254959 22.156979,125.416328 20.301117,129.787994 
	C18.798370,128.249252 17.597427,126.500221 16.085775,124.298676 
	C16.370708,124.066467 17.446476,123.189766 19.860083,121.222794 
	C17.241278,121.222794 15.831635,121.079109 14.476394,121.288139 
	C13.869869,121.381683 13.372456,122.182655 12.825525,122.662590 
	C12.434195,122.197723 12.042863,121.732864 11.651532,121.267998 
	C13.129638,120.181328 14.468800,118.555580 16.117464,118.130638 
	C18.784035,117.443329 21.654036,117.545265 24.851612,117.203751 
z"/>
<path fill="#F0D654" opacity="1.000000" stroke="none" 
	d="
M9.398853,119.005966 
	C10.494417,118.075310 11.898368,117.037903 13.675495,116.020737 
	C12.601528,116.993713 11.154385,117.946457 9.398853,119.005966 
z"/>
<path fill="#F0D654" opacity="1.000000" stroke="none" 
	d="
M6.812735,122.530525 
	C7.104864,122.140678 7.418986,122.083153 8.214310,121.997482 
	C8.458333,122.877716 8.221156,123.786102 7.983979,124.694489 
	C7.600896,124.083939 7.217812,123.473396 6.812735,122.530525 
z"/>
<path fill="#F0D654" opacity="1.000000" stroke="none" 
	d="
M8.544561,120.383400 
	C8.394600,120.171600 8.485008,119.776283 8.841457,119.215813 
	C8.999974,119.433731 8.892452,119.816811 8.544561,120.383400 
z"/>
<path fill="#F6FCFC" opacity="1.000000" stroke="none" 
	d="
M19.186050,133.824081 
	C19.363180,133.866257 19.463161,134.351974 19.309189,135.002014 
	C19.073122,134.866791 19.091013,134.567200 19.186050,133.824081 
z"/>
<path fill="#E6D476" opacity="1.000000" stroke="none" 
	d="
M61.917591,107.988762 
	C60.647652,111.368019 59.377708,114.747276 58.177841,118.813705 
	C59.140182,120.696053 60.032452,121.891235 60.825500,123.287880 
	C60.521755,123.717438 60.278156,123.890610 59.755939,124.028442 
	C59.516396,124.048042 59.035732,124.042824 58.994846,123.666611 
	C57.947514,122.512840 56.941067,121.735268 55.934616,120.957703 
	C56.474781,116.441002 57.014946,111.924309 58.112675,107.409073 
	C59.752689,107.603271 60.835140,107.796013 61.917591,107.988762 
z"/>
<path fill="#62719C" opacity="1.000000" stroke="none" 
	d="
M32.119904,112.603119 
	C30.967319,112.913727 29.911228,112.905312 28.460361,112.854782 
	C28.065586,112.812675 28.064342,112.606110 28.232891,112.307343 
	C31.372450,108.857864 34.343460,105.707153 37.314468,102.556442 
	C37.986206,102.335526 38.657951,102.114601 39.686836,101.934921 
	C37.434788,105.412140 34.825592,108.848122 32.119904,112.603119 
z"/>
<path fill="#F0D654" opacity="1.000000" stroke="none" 
	d="
M55.536560,120.962425 
	C56.941067,121.735268 57.947514,122.512840 58.987801,123.651321 
	C59.021645,124.012238 59.042614,124.028061 58.749691,124.009598 
	C57.967876,124.262589 57.478985,124.534035 56.569077,124.866379 
	C55.294785,124.990776 54.441509,125.054276 53.588238,125.117775 
	C53.588238,125.117775 53.362793,125.157883 53.267860,125.096130 
	C53.828117,123.678635 54.483315,122.322891 55.536560,120.962425 
z"/>
<path fill="#F0D654" opacity="1.000000" stroke="none" 
	d="
M61.940750,107.747528 
	C60.835140,107.796013 59.752689,107.603271 58.458733,107.260071 
	C58.187950,106.642754 58.128674,106.175880 58.400536,105.319695 
	C59.485077,104.618210 60.238472,104.306046 60.991863,103.993881 
	C60.991863,103.993881 60.999352,103.999550 61.003708,104.003746 
	C61.150204,104.872528 61.292347,105.737114 61.693428,106.811722 
	C61.952366,107.021744 61.963913,107.506287 61.940750,107.747528 
z"/>
<path fill="#E6D476" opacity="1.000000" stroke="none" 
	d="
M60.988518,103.576988 
	C60.238472,104.306046 59.485077,104.618210 58.427864,104.968674 
	C58.931496,103.175781 59.738945,101.344589 60.756664,99.254547 
	C60.973011,100.383827 60.979092,101.771957 60.988518,103.576988 
z"/>
<path fill="#F6D43D" opacity="1.000000" stroke="none" 
	d="
M62.536583,94.074364 
	C63.355743,94.272942 63.926682,94.645996 64.497620,95.019043 
	C63.904842,95.344353 63.312065,95.669662 62.382408,96.002899 
	C62.126472,95.423492 62.207417,94.836166 62.536583,94.074364 
z"/>
<path fill="#F6FCFC" opacity="1.000000" stroke="none" 
	d="
M156.506104,135.284576 
	C165.778320,141.979065 162.183701,154.711136 153.400803,157.113876 
	C148.663300,158.409943 143.788834,157.073196 140.605774,153.101364 
	C137.473618,149.193054 137.122437,143.562759 139.738113,139.190414 
	C142.274338,134.950882 147.225143,132.695541 151.981842,133.723007 
	C153.412827,134.032104 154.781708,134.628708 156.506104,135.284576 
z"/>
<path fill="#E1F3FC" opacity="1.000000" stroke="none" 
	d="
M101.462402,149.860321 
	C100.567879,149.063446 99.507545,148.054184 99.707237,147.494293 
	C100.789246,144.460434 102.182785,141.537689 103.898987,137.586777 
	C105.829834,141.987885 107.409904,145.589462 109.281418,149.855331 
	C106.351692,149.855331 104.114922,149.855331 101.462402,149.860321 
z"/>
<path fill="#BCC0DE" opacity="1.000000" stroke="none" 
	d="
M97.355125,128.973297 
	C100.673965,122.316689 106.204285,117.416428 112.657913,113.036957 
	C107.903595,118.315941 102.802002,123.627075 97.355125,128.973297 
z"/>
<path fill="#E1F3FC" opacity="1.000000" stroke="none" 
	d="
M211.975555,144.582336 
	C210.260269,144.765762 208.811691,144.683563 207.156342,144.298035 
	C206.949554,140.907104 206.949554,137.819550 206.949554,134.415543 
	C210.187088,133.703384 213.995880,133.126892 215.860626,137.150223 
	C217.363785,140.393417 216.180923,143.303040 211.975555,144.582336 
z"/>
<path fill="#F5F8FC" opacity="1.000000" stroke="none" 
	d="
M60.924721,123.086426 
	C60.032452,121.891235 59.140182,120.696053 58.221287,119.185440 
	C60.717590,117.622185 63.218872,116.327438 65.773666,115.148682 
	C66.859024,114.647903 68.056526,114.390198 69.589844,114.049393 
	C70.770386,115.737923 71.564133,117.399094 72.499779,119.357224 
	C73.267014,119.044212 74.776031,118.428581 76.645584,117.894653 
	C77.006119,118.947128 77.006119,119.917900 77.006119,120.888664 
	C77.327438,121.132317 77.648758,121.375969 77.970078,121.619621 
	C79.771828,119.451370 81.573586,117.283119 84.077934,115.025070 
	C86.471619,115.451805 88.162712,115.968323 89.853806,116.484848 
	C88.420059,117.337273 86.931763,118.112122 85.571289,119.068756 
	C84.626961,119.732765 83.380127,120.541840 83.172966,121.484818 
	C83.024956,122.158501 84.377663,123.161880 85.437485,124.060638 
	C85.002174,125.573654 84.190102,127.044174 83.192451,128.787460 
	C81.228966,129.246750 79.451057,129.433273 77.203384,129.496811 
	C74.171852,128.219940 71.610092,127.066071 68.722542,125.770309 
	C65.906075,124.781097 63.415398,123.933762 60.924721,123.086426 
z"/>
<path fill="#7F88A7" opacity="1.000000" stroke="none" 
	d="
M69.048332,125.912201 
	C71.610092,127.066071 74.171852,128.219940 76.914856,129.680725 
	C72.294937,132.475418 70.873062,139.114685 64.394135,140.012695 
	C63.523140,138.799393 63.036800,137.587234 62.291676,135.926086 
	C62.032890,135.477081 62.015381,135.000351 62.014866,134.758820 
	C62.014351,134.517288 61.990582,134.034821 62.211933,133.917618 
	C62.621712,133.529175 62.810139,133.257935 63.007637,132.739899 
	C63.016712,132.493088 63.057777,132.000702 63.286232,131.802490 
	C63.645580,130.811646 63.776470,130.018982 64.092995,128.943375 
	C65.471947,128.186935 66.665268,127.713448 68.126511,127.084320 
	C68.612389,126.589859 68.830360,126.251030 69.048332,125.912201 
z"/>
<path fill="#98A1CD" opacity="1.000000" stroke="none" 
	d="
M69.731766,146.163620 
	C69.838951,146.641342 69.705673,147.286728 69.276062,147.954315 
	C69.150261,147.428116 69.320786,146.879700 69.731766,146.163620 
z"/>
<path fill="#F0D654" opacity="1.000000" stroke="none" 
	d="
M27.247612,115.767197 
	C27.258011,115.335648 27.517056,115.288292 27.871567,115.669693 
	C27.931847,115.816940 27.461071,115.869881 27.247612,115.767197 
z"/>
<path fill="#7685C1" opacity="1.000000" stroke="none" 
	d="
M89.980087,116.132645 
	C88.162712,115.968323 86.471619,115.451805 84.398949,114.868301 
	C89.448372,109.892128 94.879372,104.982933 100.662865,100.050400 
	C100.209053,102.315399 99.883194,104.966209 98.490494,106.812119 
	C96.039398,110.060814 92.936386,112.817650 89.980087,116.132645 
z"/>
<path fill="#A1AAD5" opacity="1.000000" stroke="none" 
	d="
M106.640533,112.007149 
	C100.535812,119.320404 95.558029,128.227463 85.360275,131.960510 
	C88.848335,127.885315 92.560844,123.661842 96.617447,119.799797 
	C99.602798,116.957626 103.038155,114.588135 106.640533,112.007149 
z"/>
<path fill="#BCC0DE" opacity="1.000000" stroke="none" 
	d="
M81.637390,144.998810 
	C81.232933,145.661346 80.474968,146.329681 79.363617,147.004211 
	C79.768112,146.341797 80.525993,145.673187 81.637390,144.998810 
z"/>
<path fill="#BCC0DE" opacity="1.000000" stroke="none" 
	d="
M77.641327,149.000473 
	C77.216156,149.648865 76.437286,150.302292 75.338844,150.981689 
	C75.775383,150.340302 76.531502,149.672913 77.641327,149.000473 
z"/>
<path fill="#FEFEFE" opacity="1.000000" stroke="none" 
	d="
M66.236038,85.319611 
	C66.257065,85.269981 66.228294,85.263939 66.200401,85.268463 
	C66.172508,85.272987 66.215012,85.369232 66.236038,85.319611 
z"/>
<path fill="#F0D654" opacity="1.000000" stroke="none" 
	d="
M67.013458,84.856926 
	C66.821747,84.886566 66.841881,84.411240 66.947906,84.198242 
	C67.196297,84.178352 67.351219,84.364517 67.466232,84.572731 
	C67.481796,84.600914 67.297119,84.739708 67.013458,84.856926 
z"/>
<path fill="#6175AF" opacity="1.000000" stroke="none" 
	d="
M62.998562,132.986694 
	C62.810139,133.257935 62.621712,133.529175 62.043522,133.999359 
	C61.774300,134.465668 61.894840,134.733002 62.015381,135.000351 
	C62.015381,135.000351 62.032890,135.477081 62.045135,135.714752 
	C59.949379,137.630722 57.841373,139.309036 55.423660,140.589294 
	C55.417538,137.135498 55.721119,134.079773 56.273155,130.924347 
	C57.377110,131.214401 58.232609,131.604141 59.392498,132.156708 
	C60.797447,132.541916 61.898003,132.764313 62.998562,132.986694 
z"/>
<path fill="#62719C" opacity="1.000000" stroke="none" 
	d="
M56.024696,131.024033 
	C55.721119,134.079773 55.417538,137.135498 55.067741,140.595688 
	C54.816204,140.988968 54.610878,140.977783 54.150654,140.551376 
	C53.926270,138.587524 53.956779,137.038879 54.215752,135.153519 
	C54.922729,132.841400 55.401245,130.865982 55.924053,129.245331 
	C55.987129,130.074738 56.005913,130.549377 56.024696,131.024033 
z"/>
<path fill="#BCC0DE" opacity="1.000000" stroke="none" 
	d="
M53.987289,135.490234 
	C53.956779,137.038879 53.926270,138.587524 53.844093,140.517334 
	C53.359020,140.657837 52.925606,140.417191 52.264568,140.073608 
	C52.081921,138.956604 52.126904,137.942520 52.184097,136.551056 
	C52.436356,136.052368 52.611374,135.868988 53.104469,135.442902 
	C53.654148,135.338272 53.820721,135.414261 53.987289,135.490234 
z"/>
<path fill="#FCFDF4" opacity="1.000000" stroke="none" 
	d="
M37.157761,102.205856 
	C34.343460,105.707153 31.372450,108.857864 28.181992,112.217476 
	C27.609911,112.541039 27.257278,112.655701 26.357418,112.552338 
	C24.203609,111.894188 22.597031,111.454086 20.990452,111.013977 
	C20.986605,109.256546 20.982759,107.499123 20.966175,105.392120 
	C21.076725,102.396812 21.200016,99.751076 21.343338,96.675476 
	C26.559973,93.386909 31.080320,94.712936 37.157761,102.205856 
z"/>
<path fill="#CEC67D" opacity="1.000000" stroke="none" 
	d="
M54.215752,135.153519 
	C53.820721,135.414261 53.654148,135.338272 53.213226,135.283417 
	C53.230133,132.183029 53.521393,129.061508 53.700447,125.528885 
	C54.441509,125.054276 55.294785,124.990776 56.601685,124.958099 
	C57.055309,124.988922 57.108906,125.173172 57.077206,125.367561 
	C57.045506,125.561951 57.003254,125.953590 56.982037,125.961014 
	C56.960819,125.968445 56.952175,126.012566 56.665871,126.184212 
	C56.220139,127.223747 56.060719,128.091644 55.917244,128.936417 
	C55.933189,128.913300 55.879757,128.890579 55.879761,128.890579 
	C55.401245,130.865982 54.922729,132.841400 54.215752,135.153519 
z"/>
<path fill="#F0D654" opacity="1.000000" stroke="none" 
	d="
M20.774654,111.121063 
	C22.597031,111.454086 24.203609,111.894188 26.072695,112.582024 
	C24.433847,112.643410 22.532494,112.457077 20.262911,112.089211 
	C20.041763,111.608536 20.263153,111.382019 20.774654,111.121063 
z"/>
<path fill="#F0D654" opacity="1.000000" stroke="none" 
	d="
M17.555588,111.943520 
	C15.291213,112.332840 12.585773,112.682373 9.441296,113.016335 
	C9.127331,112.693420 9.335664,112.460594 9.841555,112.197899 
	C12.408740,112.030258 14.761629,111.966995 17.555588,111.943520 
z"/>
<path fill="#F0D654" opacity="1.000000" stroke="none" 
	d="
M8.694306,112.983322 
	C8.535964,113.326004 8.072106,113.650314 7.311093,113.989685 
	C7.472222,113.658150 7.930506,113.311554 8.694306,112.983322 
z"/>
<path fill="#566EA3" opacity="1.000000" stroke="none" 
	d="
M56.273155,130.924347 
	C56.005913,130.549377 55.987129,130.074738 55.924049,129.245331 
	C55.879757,128.890579 55.933189,128.913300 56.203812,128.757614 
	C56.633678,127.738808 56.792927,126.875687 56.952175,126.012566 
	C56.952175,126.012566 56.960819,125.968445 57.290024,125.951752 
	C58.054440,125.561699 58.489651,125.188347 58.962288,124.619461 
	C58.999722,124.423920 59.042614,124.028061 59.042614,124.028061 
	C59.042614,124.028061 59.021645,124.012238 59.028687,124.027527 
	C59.035732,124.042824 59.516396,124.048042 59.878754,124.242355 
	C60.473427,124.671555 60.726170,124.881912 61.099125,125.306831 
	C61.134621,126.349030 61.070328,127.152122 60.757538,128.115570 
	C60.099636,129.105118 59.690220,129.934311 59.201130,131.066162 
	C59.110336,131.577194 59.099220,131.785553 59.088104,131.993896 
	C58.232609,131.604141 57.377110,131.214401 56.273155,130.924347 
z"/>
<path fill="#CEC67D" opacity="1.000000" stroke="none" 
	d="
M60.999332,125.067726 
	C60.726170,124.881912 60.473427,124.671555 60.118298,124.222748 
	C60.278156,123.890610 60.521755,123.717438 60.825500,123.287880 
	C63.415398,123.933762 65.906075,124.781097 68.722542,125.770309 
	C68.830360,126.251030 68.612389,126.589859 67.774323,127.007858 
	C65.102600,126.413925 63.050964,125.740829 60.999332,125.067726 
z"/>
<path fill="#E6D476" opacity="1.000000" stroke="none" 
	d="
M58.749691,124.009598 
	C59.042614,124.028061 58.999722,124.423920 58.657722,124.668442 
	C57.913448,124.999702 57.511177,125.086433 57.108906,125.173172 
	C57.108906,125.173172 57.055309,124.988922 57.022701,124.897202 
	C57.478985,124.534035 57.967876,124.262589 58.749691,124.009598 
z"/>
<path fill="#FCF6C1" opacity="1.000000" stroke="none" 
	d="
M59.280804,130.763489 
	C59.690220,129.934311 60.099636,129.105118 61.074768,128.178238 
	C62.396118,128.462463 63.151741,128.844391 63.907364,129.226334 
	C63.776470,130.018982 63.645580,130.811646 62.980392,131.665222 
	C61.390995,131.405273 60.335899,131.084381 59.280804,130.763489 
z"/>
<path fill="#62719C" opacity="1.000000" stroke="none" 
	d="
M64.092995,128.943375 
	C63.151741,128.844391 62.396118,128.462463 61.323261,128.017883 
	C61.070328,127.152122 61.134621,126.349030 61.099125,125.306831 
	C63.050964,125.740829 65.102600,126.413925 67.506409,127.163498 
	C66.665268,127.713448 65.471947,128.186935 64.092995,128.943375 
z"/>
<path fill="#CEC67D" opacity="1.000000" stroke="none" 
	d="
M59.201130,131.066162 
	C60.335899,131.084381 61.390995,131.405273 62.751934,131.863434 
	C63.057777,132.000702 63.016712,132.493088 63.007637,132.739899 
	C61.898003,132.764313 60.797447,132.541916 59.392498,132.156708 
	C59.099220,131.785553 59.110336,131.577194 59.201130,131.066162 
z"/>
<path fill="#7582B9" opacity="1.000000" stroke="none" 
	d="
M62.014870,134.758820 
	C61.894840,134.733002 61.774300,134.465668 61.822170,134.116577 
	C61.990582,134.034821 62.014351,134.517288 62.014870,134.758820 
z"/>
<path fill="#62719C" opacity="1.000000" stroke="none" 
	d="
M56.665871,126.184212 
	C56.792927,126.875687 56.633678,127.738808 56.187862,128.780731 
	C56.060719,128.091644 56.220139,127.223747 56.665871,126.184212 
z"/>
<path fill="#62719C" opacity="1.000000" stroke="none" 
	d="
M57.077206,125.367561 
	C57.511177,125.086433 57.913448,124.999702 58.620289,124.863983 
	C58.489651,125.188347 58.054440,125.561699 57.311241,125.944321 
	C57.003254,125.953590 57.045506,125.561951 57.077206,125.367561 
z"/>
</svg>