<?xml version="1.0" encoding="UTF-8"?>
<svg version="1.1" xmlns="http://www.w3.org/2000/svg" width="254" height="80">
<path d="M0 0 C8.00189134 4.80921752 13.11346365 11.49863316 15.875 20.375 C17.79281008 28.62158336 16.27038568 35.51057365 12.5 43.0625 C8.16371651 49.67926418 2.17340189 54.26104868 -5.39453125 56.6640625 C-14.37527521 58.36357249 -21.88057237 57.38916155 -29.8359375 52.88671875 C-37.4915578 47.64452714 -41.37554388 41.0505836 -43.5 32.0625 C-44.71238836 23.82575848 -42.67489594 16.65203312 -37.95703125 9.83203125 C-28.75740583 -1.38856451 -13.68114396 -6.21094055 0 0 Z M-28.07421875 15.00390625 C-31.49638768 20.32836965 -33.11329522 24.62290021 -32.5 31.0625 C-30.20122755 37.50302626 -27.67940377 41.97279811 -21.5 45.0625 C-15.97542882 46.90402373 -10.58994339 46.8794855 -5.25 44.4375 C-0.49185642 41.76876079 2.75029965 38.31160104 4.5 33.0625 C5.19766205 25.880012 4.89536204 20.88338486 0.5 15.0625 C-3.86283909 10.92339625 -7.82706311 8.99549847 -13.8125 8.6875 C-19.58379803 8.86035086 -24.35873662 10.4217856 -28.07421875 15.00390625 Z " fill="#E01134" transform="translate(115.5,1.9375)"/>
<path d="M0 0 C6.68623778 1.00293567 12.9291844 3.7416844 17.75 8.5625 C22.75 15.51540859 22.75 15.51540859 22.75 18.5625 C23.4925 18.52125 24.235 18.48 25 18.4375 C27.83758952 18.56648134 29.33773938 19.13301222 31.75 20.5625 C32.24783 26.53646002 31.03415134 30.53051218 27.75 35.5625 C27.028125 36.201875 26.30625 36.84125 25.5625 37.5 C22.73250099 40.72034371 22.92791431 44.39930509 22.75 48.5625 C15.82245116 51.19855359 7.72922553 52.10535862 0.53125 49.875 C-1.8746165 48.56270918 -3.89807588 46.888633 -5.90234375 45.03125 C-10.43812725 40.83487887 -14.11242453 39.36970947 -20.25 38.5625 C-20.58 39.5525 -20.91 40.5425 -21.25 41.5625 C-21.92679658 39.837273 -22.59102 38.10711061 -23.25 36.375 C-23.62125 35.41207031 -23.9925 34.44914062 -24.375 33.45703125 C-25.22636772 30.64067642 -25.42072647 28.48085561 -25.25 25.5625 C-24.26 25.2325 -23.27 24.9025 -22.25 24.5625 C-22.0025 23.716875 -21.755 22.87125 -21.5 22 C-19.06995529 15.31737706 -13.26904678 10.4494666 -8.25 5.5625 C-7.46625 4.634375 -6.6825 3.70625 -5.875 2.75 C-3.25 0.5625 -3.25 0.5625 0 0 Z M-9.82421875 13.50390625 C-13.24638768 18.82836965 -14.86329522 23.12290021 -14.25 29.5625 C-11.95122755 36.00302626 -9.42940377 40.47279811 -3.25 43.5625 C2.27457118 45.40402373 7.66005661 45.3794855 13 42.9375 C17.75814358 40.26876079 21.00029965 36.81160104 22.75 31.5625 C23.44766205 24.380012 23.14536204 19.38338486 18.75 13.5625 C14.38716091 9.42339625 10.42293689 7.49549847 4.4375 7.1875 C-1.33379803 7.36035086 -6.10873662 8.9217856 -9.82421875 13.50390625 Z " fill="#66160E" transform="translate(97.25,3.4375)"/>
<path d="M0 0 C2.31 0 4.62 0 7 0 C10.96 7.59 14.92 15.18 19 23 C21.1838794 20.08816081 22.83057099 17.62435706 24.48046875 14.453125 C24.92197266 13.60878906 25.36347656 12.76445312 25.81835938 11.89453125 C26.49608398 10.58548828 26.49608398 10.58548828 27.1875 9.25 C27.88262695 7.91775391 27.88262695 7.91775391 28.59179688 6.55859375 C29.73105728 4.37403255 30.86700223 2.18781392 32 0 C34.64 0 37.28 0 40 0 C40 12.54 40 25.08 40 38 C37.69 38 35.38 38 33 38 C32.67 30.41 32.34 22.82 32 15 C28.7 20.94 25.4 26.88 22 33 C20.02 33 18.04 33 16 33 C15.5153125 32.01902344 15.030625 31.03804687 14.53125 30.02734375 C10.63531978 22.17473188 6.66822045 14.37870421 2.43945312 6.69897461 C0 2.21335041 0 2.21335041 0 0 Z " fill="#1C1C38" transform="translate(142,12)"/>
<path d="M0 0 C2.85475306 -0.08156437 5.70713565 -0.14076372 8.5625 -0.1875 C9.36236328 -0.21263672 10.16222656 -0.23777344 10.98632812 -0.26367188 C17.18033062 -0.3395168 22.03771392 0.515502 26.9375 4.625 C28.61319137 8.37066306 28.54913985 11.96815745 28 16 C26.76376078 18.52867113 25.36558248 20.51255669 23.6875 22.75 C22.68054343 25.16278769 22.68054343 25.16278769 24.3359375 27.98046875 C25.34527344 29.56794922 25.34527344 29.56794922 26.375 31.1875 C30 36.97490347 30 36.97490347 30 38 C27.36 38 24.72 38 22 38 C20.99515796 36.04414675 19.99626195 34.08523763 19 32.125 C18.443125 31.03445312 17.88625 29.94390625 17.3125 28.8203125 C16 26 16 26 16 24 C13.03 24 10.06 24 7 24 C7 28.62 7 33.24 7 38 C4.69 38 2.38 38 0 38 C0 31.73 0 25.46 0 19 C8.3125 18.5625 8.3125 18.5625 10.91918945 18.43188477 C11.60198975 18.39377686 12.28479004 18.35566895 12.98828125 18.31640625 C14.03302612 18.26141968 14.03302612 18.26141968 15.09887695 18.20532227 C17.2216572 18.04418847 17.2216572 18.04418847 20 17 C21.04214691 12.38492226 21.04214691 12.38492226 20 8 C17.40742331 7.13580777 15.65962293 6.82419068 12.98828125 6.68359375 C12.23095703 6.64169922 11.47363281 6.59980469 10.69335938 6.55664062 C9.51483398 6.49766602 9.51483398 6.49766602 8.3125 6.4375 C7.51521484 6.39431641 6.71792969 6.35113281 5.89648438 6.30664062 C3.93118553 6.20072632 1.96561504 6.09987449 0 6 C0 4.02 0 2.04 0 0 Z " fill="#1C1C38" transform="translate(188,12)"/>
<path d="M0 0 C2.97 0 5.94 0 9 0 C12.62547941 7.71240089 15.83591903 15.51622541 18.8125 23.5 C19.21919922 24.56992187 19.62589844 25.63984375 20.04492188 26.7421875 C20.42841797 27.76570313 20.81191406 28.78921875 21.20703125 29.84375 C21.5522583 30.76349609 21.89748535 31.68324219 22.25317383 32.63085938 C23 35 23 35 23 38 C20.69 38 18.38 38 16 38 C12.04418282 28.44215601 8.55632131 18.71149281 5 9 C1.7 18.57 -1.6 28.14 -5 38 C-7.31 38 -9.62 38 -12 38 C-11.42329143 32.90717554 -10.26343968 28.3538471 -8.49609375 23.53515625 C-8.2533522 22.85698349 -8.01061066 22.17881073 -7.76051331 21.48008728 C-6.99239698 19.338592 -6.21512872 17.20055701 -5.4375 15.0625 C-4.91149801 13.60113137 -4.3861015 12.13954465 -3.86132812 10.67773438 C-2.58120157 7.11593122 -1.29286284 3.55719889 0 0 Z " fill="#1C1C38" transform="translate(12,12)"/>
<path d="M0 0 C1.23556641 0.01740234 1.23556641 0.01740234 2.49609375 0.03515625 C3.32238281 0.04417969 4.14867187 0.05320312 5 0.0625 C5.63808594 0.07410156 6.27617187 0.08570313 6.93359375 0.09765625 C8.79356143 4.86325266 10.6447086 9.63214541 12.48779297 14.40429688 C13.11591663 16.02697669 13.74643333 17.6487323 14.37939453 19.26953125 C15.28920303 21.60046919 16.19033132 23.93460393 17.08984375 26.26953125 C17.37420288 26.9925946 17.65856201 27.71565796 17.95153809 28.46063232 C19.27856832 31.92978635 19.93359375 34.33020801 19.93359375 38.09765625 C17.62359375 38.09765625 15.31359375 38.09765625 12.93359375 38.09765625 C11.84984964 35.16030764 10.76667873 32.22274796 9.68359375 29.28515625 C9.38324219 28.47111328 9.08289063 27.65707031 8.7734375 26.81835938 C6.47545076 20.58445917 4.20417976 14.34176777 1.93359375 8.09765625 C-1.36640625 17.99765625 -4.66640625 27.89765625 -8.06640625 38.09765625 C-10.37640625 38.09765625 -12.68640625 38.09765625 -15.06640625 38.09765625 C-13.64564059 30.62848819 -11.29046959 23.65132858 -8.69799805 16.51074219 C-7.99598648 14.57582745 -7.30309311 12.63781763 -6.61132812 10.69921875 C-2.80805362 0.13270575 -2.80805362 0.13270575 0 0 Z " fill="#1C1C38" transform="translate(234.06640625,11.90234375)"/>
<path d="M0 0 C3.375 0.4375 3.375 0.4375 6.375 2.4375 C4.875 4.4375 4.875 4.4375 2.375 6.4375 C-0.38371627 6.79550135 -2.82597524 6.62410165 -5.625 6.4375 C-5.625 7.0975 -5.625 7.7575 -5.625 8.4375 C-4.965 8.7675 -4.305 9.0975 -3.625 9.4375 C-4.346875 9.72625 -5.06875 10.015 -5.8125 10.3125 C-10.8379254 14.10948808 -13.2449987 19.77749093 -14.125 25.9375 C-13.45722721 30.61190951 -12.13458274 34.97165106 -10.625 39.4375 C-13.17202616 40.71101308 -14.0532945 40.23941925 -16.75 39.5 C-17.47445312 39.30535156 -18.19890625 39.11070313 -18.9453125 38.91015625 C-19.77675781 38.67619141 -19.77675781 38.67619141 -20.625 38.4375 C-20.955 39.4275 -21.285 40.4175 -21.625 41.4375 C-22.30179658 39.712273 -22.96602 37.98211061 -23.625 36.25 C-23.99625 35.28707031 -24.3675 34.32414062 -24.75 33.33203125 C-25.60136772 30.51567642 -25.79572647 28.35585561 -25.625 25.4375 C-24.635 25.1075 -23.645 24.7775 -22.625 24.4375 C-22.3775 23.591875 -22.13 22.74625 -21.875 21.875 C-19.44495529 15.19237706 -13.64404678 10.3244666 -8.625 5.4375 C-7.84125 4.509375 -7.0575 3.58125 -6.25 2.625 C-3.625 0.4375 -3.625 0.4375 0 0 Z " fill="#69160F" transform="translate(97.625,3.5625)"/>
<path d="M0 0 C8.91 0 17.82 0 27 0 C27 2.31 27 4.62 27 7 C18.09 7 9.18 7 0 7 C0 4.69 0 2.38 0 0 Z " fill="#1C1C38" transform="translate(39,43)"/>
<path d="M0 0 C2.31 0 4.62 0 7 0 C7 8.58 7 17.16 7 26 C4.69 26 2.38 26 0 26 C0 17.42 0 8.84 0 0 Z " fill="#1C1C38" transform="translate(39,12)"/>
<path d="M0 0 C-2.98478782 4.35281558 -5.94273973 8.1072953 -10.0625 11.4375 C-13.83208484 14.55244319 -15.8284222 17.77894981 -17.89453125 22.1796875 C-19 24 -19 24 -22 25 C-21.53789944 15.29588816 -18.04122939 8.00680145 -10.98046875 1.2421875 C-7.48903064 -0.94770859 -3.95954229 -0.5656489 0 0 Z " fill="#E41F37" transform="translate(94,4)"/>
<path d="M0 0 C3 1 3 1 5.1875 4.0625 C8.29729562 10.50675329 7.30426544 18.03570211 7 25 C5.02 25 3.04 25 1 25 C0.67 16.75 0.34 8.5 0 0 Z " fill="#1C1C38" transform="translate(141,25)"/>
<path d="M0 0 C0.66 0 1.32 0 2 0 C2 1.98 2 3.96 2 6 C5.3 6.66 8.6 7.32 12 8 C12.66 10.31 13.32 12.62 14 15 C11.45297384 16.27351308 10.5717055 15.80191925 7.875 15.0625 C7.15054688 14.86785156 6.42609375 14.67320313 5.6796875 14.47265625 C5.12539062 14.31667969 4.57109375 14.16070312 4 14 C3.67 14.99 3.34 15.98 3 17 C2.32320342 15.274773 1.65898 13.54461061 1 11.8125 C0.443125 10.36810547 0.443125 10.36810547 -0.125 8.89453125 C-0.98130906 6.0618303 -1.25028745 3.93566326 -1 1 C-0.67 0.67 -0.34 0.34 0 0 Z " fill="#8E1D1B" transform="translate(73,28)"/>
<path d="M0 0 C0.99 0.66 1.98 1.32 3 2 C-0.14951856 5.76107556 -2.42885116 6.6211545 -7.25 7.25 C-8.32765625 7.39953125 -9.4053125 7.5490625 -10.515625 7.703125 C-11.74539062 7.85007812 -11.74539062 7.85007812 -13 8 C-9.90546508 1.56769161 -7.47877186 -0.81586602 0 0 Z " fill="#851C18" transform="translate(101,4)"/>
<path d="M0 0 C0.66 1.32 1.32 2.64 2 4 C2.7425 3.95875 3.485 3.9175 4.25 3.875 C7.08758952 4.00398134 8.58773938 4.57051222 11 6 C11 8.31 11 10.62 11 13 C10.67 12.34 10.34 11.68 10 11 C8.35 11 6.7 11 5 11 C5 10.34 5 9.68 5 9 C4.01 9.33 3.02 9.66 2 10 C1.34 6.7 0.68 3.4 0 0 Z " fill="#891B1A" transform="translate(118,18)"/>
<path d="M0 0 C2.375 0.75 2.375 0.75 3.375 1.75 C3.5625 4.6875 3.5625 4.6875 3.375 7.75 C2.715 8.41 2.055 9.07 1.375 9.75 C-1.75 9.375 -1.75 9.375 -4.625 8.75 C-5.95341008 3.31559513 -5.95341008 3.31559513 -4.5 0.8125 C-2.625 -0.25 -2.625 -0.25 0 0 Z M-1.625 1.75 C-2.73336423 3.63316159 -2.73336423 3.63316159 -3.625 5.75 C-3.295 6.41 -2.965 7.07 -2.625 7.75 C-1.635 7.42 -0.645 7.09 0.375 6.75 C-0.285 6.75 -0.945 6.75 -1.625 6.75 C-1.625 5.76 -1.625 4.77 -1.625 3.75 C-0.635 3.42 0.355 3.09 1.375 2.75 C0.385 2.42 -0.605 2.09 -1.625 1.75 Z " fill="#C0282F" transform="translate(77.625,68.25)"/>
<path d="M0 0 C0.99 0 1.98 0 3 0 C3 3.3 3 6.6 3 10 C1.02 10 -0.96 10 -3 10 C-3.66 8.68 -4.32 7.36 -5 6 C-4.34 5.01 -3.68 4.02 -3 3 C-2.01 3 -1.02 3 0 3 C0 2.01 0 1.02 0 0 Z M-2 5 C-2 5.99 -2 6.98 -2 8 C-1.34 8 -0.68 8 0 8 C0 7.01 0 6.02 0 5 C-0.66 5 -1.32 5 -2 5 Z " fill="#C0282F" transform="translate(108,68)"/>
<path d="M0 0 C1.98 0 3.96 0 6 0 C6.09765625 6.15234375 6.09765625 6.15234375 6 8 C5 9 5 9 2.4375 9.0625 C1.633125 9.041875 0.82875 9.02125 0 9 C-1.10844919 5.67465243 -0.84454356 3.37817425 0 0 Z M1 2 C1 2.99 1 3.98 1 5 C1.99 4.67 2.98 4.34 4 4 C3.67 3.34 3.34 2.68 3 2 C2.34 2 1.68 2 1 2 Z " fill="#C0282F" transform="translate(125,71)"/>
<path d="M0 0 C5.37305699 -0.44041451 5.37305699 -0.44041451 8 0 C10 2.5 10 2.5 11 5 C8.45297384 6.27351308 7.5717055 5.80191925 4.875 5.0625 C4.15054688 4.86785156 3.42609375 4.67320313 2.6796875 4.47265625 C2.12539062 4.31667969 1.57109375 4.16070312 1 4 C0.67 4.99 0.34 5.98 0 7 C0 4.69 0 2.38 0 0 Z " fill="#BB222B" transform="translate(76,38)"/>
<path d="M0 0 C2.5 0.125 2.5 0.125 3.5 1.125 C3.54080783 3.12458364 3.54254356 5.12545254 3.5 7.125 C1.52 7.125 -0.46 7.125 -2.5 7.125 C-2.88133299 5.1335944 -3.21325582 3.13220923 -3.5 1.125 C-2.5 0.125 -2.5 0.125 0 0 Z " fill="#C0282F" transform="translate(93.5,70.875)"/>
<path d="M0 0 C1.98 0 3.96 0 6 0 C6.33 2.31 6.66 4.62 7 7 C6.01 7 5.02 7 4 7 C3.67 5.68 3.34 4.36 3 3 C2.67 4.32 2.34 5.64 2 7 C1.34 7 0.68 7 0 7 C0 4.69 0 2.38 0 0 Z " fill="#C0282F" transform="translate(116,71)"/>
<path d="M0 0 C0.99 0 1.98 0 3 0 C3.33 1.32 3.66 2.64 4 4 C4.33 2.68 4.66 1.36 5 0 C5.66 0 6.32 0 7 0 C7 2.31 7 4.62 7 7 C4.625 7.1875 4.625 7.1875 2 7 C0 4 0 4 0 0 Z " fill="#C0282F" transform="translate(82,71)"/>
<path d="M0 0 C0 0.33 0 0.66 0 1 C-1.65 1 -3.3 1 -5 1 C-5.20625 1.78375 -5.4125 2.5675 -5.625 3.375 C-7 6 -7 6 -10.125 7.3125 C-11.07375 7.539375 -12.0225 7.76625 -13 8 C-10.15054522 1.35127217 -7.28443449 -0.56034111 0 0 Z " fill="#AD2026" transform="translate(101,4)"/>
<path d="M0 0 C1.65 0 3.3 0 5 0 C5 0.66 5 1.32 5 2 C4.34 2 3.68 2 3 2 C3 3.65 3 5.3 3 7 C2.01 7 1.02 7 0 7 C0 4.69 0 2.38 0 0 Z " fill="#C0282F" transform="translate(98,71)"/>
<path d="M0 0 C0.66 0.33 1.32 0.66 2 1 C0.73657512 2.48549956 -0.5360103 3.96321189 -1.8125 5.4375 C-2.52019531 6.26121094 -3.22789063 7.08492187 -3.95703125 7.93359375 C-6 10 -6 10 -9 11 C-7.59155282 7.78475695 -5.89655214 5.67816132 -3.375 3.25 C-2.74335937 2.63640625 -2.11171875 2.0228125 -1.4609375 1.390625 C-0.73777344 0.70226562 -0.73777344 0.70226562 0 0 Z " fill="#CD2530" transform="translate(92,4)"/>
<path d="M0 0 C0.99 0 1.98 0 3 0 C2.67 3.3 2.34 6.6 2 10 C1.34 10 0.68 10 0 10 C0 6.7 0 3.4 0 0 Z " fill="#C0282F" transform="translate(112,68)"/>
<path d="M0 0 C3.62528568 -0.20140476 5.86501708 0.14223235 9 2 C9 2.66 9 3.32 9 4 C6.36 3.67 3.72 3.34 1 3 C0.67 2.01 0.34 1.02 0 0 Z " fill="#AB2126" transform="translate(120,22)"/>
<path d="M0 0 C0.33 0 0.66 0 1 0 C1 2.64 1 5.28 1 8 C0.01 7.67 -0.98 7.34 -2 7 C-2.125 4.625 -2.125 4.625 -2 2 C-1.34 1.34 -0.68 0.68 0 0 Z " fill="#961E1E" transform="translate(119,44)"/>
<path d="M0 0 C0.66 0.33 1.32 0.66 2 1 C0.6875 3.9375 0.6875 3.9375 -1 7 C-1.99 7.33 -2.98 7.66 -4 8 C-4 6.68 -4 5.36 -4 4 C-3.34 4 -2.68 4 -2 4 C-1.34 2.68 -0.68 1.36 0 0 Z " fill="#CC2530" transform="translate(76,21)"/>
<path d="M0 0 C0.268125 0.61875 0.53625 1.2375 0.8125 1.875 C1.95556848 4.2995233 1.95556848 4.2995233 5 6 C4.34 6.66 3.68 7.32 3 8 C2.01 8 1.02 8 0 8 C0 5.36 0 2.72 0 0 Z " fill="#D12232" transform="translate(120,43)"/>
<path d="M0 0 C2.64 0 5.28 0 8 0 C8 0.99 8 1.98 8 3 C2.25 2.25 2.25 2.25 0 0 Z " fill="#A42023" transform="translate(76,38)"/>
</svg>
